G04 #@! TF.FileFunction,Soldermask,Bot*
%FSLAX46Y46*%
G04 Gerber Fmt 4.6, Leading zero omitted, Abs format (unit mm)*
G04 Created by KiCad (PCBNEW 4.0.7) date 06/09/18 23:49:41*
%MOMM*%
%LPD*%
G01*
G04 APERTURE LIST*
%ADD10C,0.100000*%
%ADD11C,2.000000*%
%ADD12R,4.400000X4.400000*%
%ADD13C,4.400000*%
%ADD14R,2.800000X2.800000*%
%ADD15C,2.800000*%
%ADD16R,2.500000X2.500000*%
%ADD17C,2.500000*%
%ADD18O,2.800000X2.800000*%
%ADD19R,2.200000X2.200000*%
%ADD20C,2.200000*%
%ADD21R,2.600000X2.600000*%
%ADD22O,2.600000X2.600000*%
%ADD23C,10.560000*%
%ADD24C,3.200000*%
%ADD25O,3.200000X3.200000*%
%ADD26C,1.920000*%
%ADD27R,1.920000X1.920000*%
%ADD28O,2.000000X1.600000*%
%ADD29O,1.600000X1.600000*%
%ADD30O,2.200000X2.200000*%
%ADD31O,2.000000X2.000000*%
%ADD32C,2.740000*%
%ADD33C,12.400000*%
%ADD34C,1.300000*%
%ADD35C,17.200000*%
%ADD36C,1.500000*%
G04 APERTURE END LIST*
D10*
D11*
X143510000Y-120650000D03*
X148510000Y-120650000D03*
D12*
X97790000Y-116840000D03*
D13*
X87790000Y-116840000D03*
D11*
X148510000Y-114300000D03*
X143510000Y-114300000D03*
X118110000Y-69850000D03*
X118110000Y-74850000D03*
D14*
X173990000Y-93980000D03*
D15*
X173990000Y-86480000D03*
D16*
X135950000Y-119380000D03*
D17*
X130850000Y-119380000D03*
X120650000Y-119380000D03*
X125750000Y-119380000D03*
D14*
X118110000Y-102870000D03*
D18*
X133350000Y-102870000D03*
D14*
X118110000Y-109220000D03*
D18*
X133350000Y-109220000D03*
D19*
X143510000Y-107950000D03*
D20*
X140970000Y-107950000D03*
D21*
X120650000Y-83820000D03*
D22*
X130810000Y-83820000D03*
D19*
X128270000Y-72390000D03*
D20*
X130810000Y-72390000D03*
D21*
X158750000Y-125730000D03*
D22*
X168910000Y-125730000D03*
D21*
X166370000Y-80010000D03*
D22*
X156210000Y-80010000D03*
D21*
X156210000Y-74930000D03*
D22*
X166370000Y-74930000D03*
D23*
X118620000Y-130810000D03*
X148590000Y-130810000D03*
X194310000Y-96010000D03*
X194310000Y-66040000D03*
D24*
X71120000Y-90170000D03*
D25*
X106680000Y-90170000D03*
D26*
X177800000Y-115570000D03*
X177800000Y-118110000D03*
D27*
X177800000Y-113030000D03*
D28*
X114300000Y-81280000D03*
D29*
X111760000Y-78740000D03*
X109220000Y-81280000D03*
D19*
X142240000Y-74930000D03*
D30*
X144780000Y-74930000D03*
X147320000Y-74930000D03*
D19*
X127000000Y-64770000D03*
D30*
X124460000Y-64770000D03*
X121920000Y-64770000D03*
D11*
X135890000Y-96520000D03*
D31*
X115570000Y-96520000D03*
D11*
X118110000Y-90170000D03*
D31*
X133350000Y-90170000D03*
D11*
X156210000Y-109220000D03*
D31*
X171450000Y-109220000D03*
D11*
X171450000Y-114300000D03*
D31*
X156210000Y-114300000D03*
D11*
X133350000Y-78740000D03*
D31*
X118110000Y-78740000D03*
D11*
X171450000Y-119380000D03*
D31*
X156210000Y-119380000D03*
D15*
X73660000Y-80010000D03*
D18*
X104140000Y-80010000D03*
D11*
X175260000Y-109220000D03*
D31*
X190500000Y-109220000D03*
D11*
X96520000Y-71120000D03*
D31*
X81280000Y-71120000D03*
D11*
X132080000Y-58420000D03*
D31*
X116840000Y-58420000D03*
D11*
X152400000Y-80010000D03*
D31*
X137160000Y-80010000D03*
D15*
X157480000Y-64770000D03*
D18*
X132080000Y-64770000D03*
D15*
X199390000Y-125730000D03*
D18*
X173990000Y-125730000D03*
D15*
X173990000Y-134620000D03*
D18*
X199390000Y-134620000D03*
D32*
X148670000Y-104140000D03*
X153670000Y-104140000D03*
X158670000Y-104140000D03*
D33*
X76200000Y-62230000D03*
D34*
X80700000Y-62230000D03*
X79381981Y-65411981D03*
X76200000Y-66730000D03*
X73018019Y-65411981D03*
X71700000Y-62230000D03*
X73018019Y-59048019D03*
X76200000Y-57730000D03*
X79381981Y-59048019D03*
D35*
X177800000Y-67310000D03*
D36*
X184100000Y-67310000D03*
X182254773Y-71764773D03*
X177800000Y-73610000D03*
X173345227Y-71764773D03*
X171500000Y-67310000D03*
X173345227Y-62855227D03*
X177800000Y-61010000D03*
X182254773Y-62855227D03*
M02*
