G04 #@! TF.FileFunction,Legend,Top*
%FSLAX46Y46*%
G04 Gerber Fmt 4.6, Leading zero omitted, Abs format (unit mm)*
G04 Created by KiCad (PCBNEW 4.0.7) date 06/09/18 23:49:40*
%MOMM*%
%LPD*%
G01*
G04 APERTURE LIST*
%ADD10C,0.100000*%
%ADD11C,0.120000*%
%ADD12C,0.150000*%
G04 APERTURE END LIST*
D10*
D11*
X142950000Y-119340000D02*
X149070000Y-119340000D01*
X142950000Y-121960000D02*
X149070000Y-121960000D01*
X142950000Y-119340000D02*
X142950000Y-119654000D01*
X142950000Y-121646000D02*
X142950000Y-121960000D01*
X149070000Y-119340000D02*
X149070000Y-119654000D01*
X149070000Y-121646000D02*
X149070000Y-121960000D01*
X112880000Y-116840000D02*
G75*
G03X112880000Y-116840000I-20090000J0D01*
G01*
X92790000Y-136890000D02*
X92790000Y-96790000D01*
X92750000Y-136890000D02*
X92750000Y-96790000D01*
X92710000Y-136890000D02*
X92710000Y-96790000D01*
X92670000Y-136890000D02*
X92670000Y-96790000D01*
X92630000Y-136890000D02*
X92630000Y-96790000D01*
X92590000Y-136890000D02*
X92590000Y-96790000D01*
X92550000Y-136889000D02*
X92550000Y-96791000D01*
X92510000Y-136889000D02*
X92510000Y-96791000D01*
X92470000Y-136888000D02*
X92470000Y-96792000D01*
X92430000Y-136887000D02*
X92430000Y-96793000D01*
X92390000Y-136887000D02*
X92390000Y-96793000D01*
X92350000Y-136886000D02*
X92350000Y-96794000D01*
X92310000Y-136885000D02*
X92310000Y-96795000D01*
X92270000Y-136884000D02*
X92270000Y-96796000D01*
X92230000Y-136883000D02*
X92230000Y-96797000D01*
X92190000Y-136882000D02*
X92190000Y-96798000D01*
X92150000Y-136880000D02*
X92150000Y-96800000D01*
X92110000Y-136879000D02*
X92110000Y-96801000D01*
X92069000Y-136878000D02*
X92069000Y-96802000D01*
X92029000Y-136876000D02*
X92029000Y-96804000D01*
X91989000Y-136875000D02*
X91989000Y-96805000D01*
X91949000Y-136873000D02*
X91949000Y-96807000D01*
X91909000Y-136871000D02*
X91909000Y-96809000D01*
X91869000Y-136869000D02*
X91869000Y-96811000D01*
X91829000Y-136868000D02*
X91829000Y-96812000D01*
X91789000Y-136866000D02*
X91789000Y-96814000D01*
X91749000Y-136864000D02*
X91749000Y-96816000D01*
X91709000Y-136861000D02*
X91709000Y-96819000D01*
X91669000Y-136859000D02*
X91669000Y-96821000D01*
X91629000Y-136857000D02*
X91629000Y-96823000D01*
X91589000Y-136855000D02*
X91589000Y-96825000D01*
X91549000Y-136852000D02*
X91549000Y-96828000D01*
X91509000Y-136850000D02*
X91509000Y-96830000D01*
X91469000Y-136847000D02*
X91469000Y-96833000D01*
X91429000Y-136844000D02*
X91429000Y-96836000D01*
X91389000Y-136842000D02*
X91389000Y-96838000D01*
X91349000Y-136839000D02*
X91349000Y-96841000D01*
X91309000Y-136836000D02*
X91309000Y-96844000D01*
X91269000Y-136833000D02*
X91269000Y-96847000D01*
X91229000Y-136830000D02*
X91229000Y-96850000D01*
X91189000Y-136827000D02*
X91189000Y-96853000D01*
X91149000Y-136823000D02*
X91149000Y-96857000D01*
X91109000Y-136820000D02*
X91109000Y-96860000D01*
X91069000Y-136817000D02*
X91069000Y-96863000D01*
X91029000Y-136813000D02*
X91029000Y-96867000D01*
X90989000Y-136810000D02*
X90989000Y-96870000D01*
X90949000Y-136806000D02*
X90949000Y-96874000D01*
X90909000Y-136802000D02*
X90909000Y-96878000D01*
X90869000Y-136799000D02*
X90869000Y-96881000D01*
X90829000Y-136795000D02*
X90829000Y-96885000D01*
X90789000Y-136791000D02*
X90789000Y-96889000D01*
X90749000Y-136787000D02*
X90749000Y-96893000D01*
X90709000Y-136783000D02*
X90709000Y-96897000D01*
X90669000Y-136778000D02*
X90669000Y-96902000D01*
X90629000Y-136774000D02*
X90629000Y-96906000D01*
X90589000Y-136770000D02*
X90589000Y-96910000D01*
X90549000Y-136765000D02*
X90549000Y-96915000D01*
X90509000Y-136761000D02*
X90509000Y-96919000D01*
X90469000Y-136756000D02*
X90469000Y-96924000D01*
X90429000Y-136751000D02*
X90429000Y-96929000D01*
X90389000Y-136747000D02*
X90389000Y-96933000D01*
X90349000Y-136742000D02*
X90349000Y-96938000D01*
X90309000Y-136737000D02*
X90309000Y-96943000D01*
X90269000Y-136732000D02*
X90269000Y-96948000D01*
X90229000Y-136727000D02*
X90229000Y-96953000D01*
X90189000Y-136722000D02*
X90189000Y-96958000D01*
X90149000Y-136716000D02*
X90149000Y-96964000D01*
X90109000Y-136711000D02*
X90109000Y-96969000D01*
X90069000Y-136706000D02*
X90069000Y-96974000D01*
X90029000Y-136700000D02*
X90029000Y-96980000D01*
X89989000Y-136694000D02*
X89989000Y-96986000D01*
X89949000Y-136689000D02*
X89949000Y-119020000D01*
X89949000Y-114660000D02*
X89949000Y-96991000D01*
X89909000Y-136683000D02*
X89909000Y-119020000D01*
X89909000Y-114660000D02*
X89909000Y-96997000D01*
X89869000Y-136677000D02*
X89869000Y-119020000D01*
X89869000Y-114660000D02*
X89869000Y-97003000D01*
X89829000Y-136671000D02*
X89829000Y-119020000D01*
X89829000Y-114660000D02*
X89829000Y-97009000D01*
X89789000Y-136665000D02*
X89789000Y-119020000D01*
X89789000Y-114660000D02*
X89789000Y-97015000D01*
X89749000Y-136659000D02*
X89749000Y-119020000D01*
X89749000Y-114660000D02*
X89749000Y-97021000D01*
X89709000Y-136653000D02*
X89709000Y-119020000D01*
X89709000Y-114660000D02*
X89709000Y-97027000D01*
X89669000Y-136647000D02*
X89669000Y-119020000D01*
X89669000Y-114660000D02*
X89669000Y-97033000D01*
X89629000Y-136640000D02*
X89629000Y-119020000D01*
X89629000Y-114660000D02*
X89629000Y-97040000D01*
X89589000Y-136634000D02*
X89589000Y-119020000D01*
X89589000Y-114660000D02*
X89589000Y-97046000D01*
X89549000Y-136628000D02*
X89549000Y-119020000D01*
X89549000Y-114660000D02*
X89549000Y-97052000D01*
X89509000Y-136621000D02*
X89509000Y-119020000D01*
X89509000Y-114660000D02*
X89509000Y-97059000D01*
X89469000Y-136614000D02*
X89469000Y-119020000D01*
X89469000Y-114660000D02*
X89469000Y-97066000D01*
X89429000Y-136608000D02*
X89429000Y-119020000D01*
X89429000Y-114660000D02*
X89429000Y-97072000D01*
X89389000Y-136601000D02*
X89389000Y-119020000D01*
X89389000Y-114660000D02*
X89389000Y-97079000D01*
X89349000Y-136594000D02*
X89349000Y-119020000D01*
X89349000Y-114660000D02*
X89349000Y-97086000D01*
X89309000Y-136587000D02*
X89309000Y-119020000D01*
X89309000Y-114660000D02*
X89309000Y-97093000D01*
X89269000Y-136580000D02*
X89269000Y-119020000D01*
X89269000Y-114660000D02*
X89269000Y-97100000D01*
X89229000Y-136573000D02*
X89229000Y-119020000D01*
X89229000Y-114660000D02*
X89229000Y-97107000D01*
X89189000Y-136565000D02*
X89189000Y-119020000D01*
X89189000Y-114660000D02*
X89189000Y-97115000D01*
X89149000Y-136558000D02*
X89149000Y-119020000D01*
X89149000Y-114660000D02*
X89149000Y-97122000D01*
X89109000Y-136551000D02*
X89109000Y-119020000D01*
X89109000Y-114660000D02*
X89109000Y-97129000D01*
X89069000Y-136543000D02*
X89069000Y-119020000D01*
X89069000Y-114660000D02*
X89069000Y-97137000D01*
X89029000Y-136536000D02*
X89029000Y-119020000D01*
X89029000Y-114660000D02*
X89029000Y-97144000D01*
X88989000Y-136528000D02*
X88989000Y-119020000D01*
X88989000Y-114660000D02*
X88989000Y-97152000D01*
X88949000Y-136520000D02*
X88949000Y-119020000D01*
X88949000Y-114660000D02*
X88949000Y-97160000D01*
X88909000Y-136512000D02*
X88909000Y-119020000D01*
X88909000Y-114660000D02*
X88909000Y-97168000D01*
X88869000Y-136504000D02*
X88869000Y-119020000D01*
X88869000Y-114660000D02*
X88869000Y-97176000D01*
X88829000Y-136496000D02*
X88829000Y-119020000D01*
X88829000Y-114660000D02*
X88829000Y-97184000D01*
X88789000Y-136488000D02*
X88789000Y-119020000D01*
X88789000Y-114660000D02*
X88789000Y-97192000D01*
X88749000Y-136480000D02*
X88749000Y-119020000D01*
X88749000Y-114660000D02*
X88749000Y-97200000D01*
X88709000Y-136472000D02*
X88709000Y-119020000D01*
X88709000Y-114660000D02*
X88709000Y-97208000D01*
X88669000Y-136464000D02*
X88669000Y-119020000D01*
X88669000Y-114660000D02*
X88669000Y-97216000D01*
X88629000Y-136455000D02*
X88629000Y-119020000D01*
X88629000Y-114660000D02*
X88629000Y-97225000D01*
X88589000Y-136447000D02*
X88589000Y-119020000D01*
X88589000Y-114660000D02*
X88589000Y-97233000D01*
X88549000Y-136438000D02*
X88549000Y-119020000D01*
X88549000Y-114660000D02*
X88549000Y-97242000D01*
X88509000Y-136429000D02*
X88509000Y-119020000D01*
X88509000Y-114660000D02*
X88509000Y-97251000D01*
X88469000Y-136421000D02*
X88469000Y-119020000D01*
X88469000Y-114660000D02*
X88469000Y-97259000D01*
X88429000Y-136412000D02*
X88429000Y-119020000D01*
X88429000Y-114660000D02*
X88429000Y-97268000D01*
X88389000Y-136403000D02*
X88389000Y-119020000D01*
X88389000Y-114660000D02*
X88389000Y-97277000D01*
X88349000Y-136394000D02*
X88349000Y-119020000D01*
X88349000Y-114660000D02*
X88349000Y-97286000D01*
X88309000Y-136385000D02*
X88309000Y-119020000D01*
X88309000Y-114660000D02*
X88309000Y-97295000D01*
X88269000Y-136375000D02*
X88269000Y-119020000D01*
X88269000Y-114660000D02*
X88269000Y-97305000D01*
X88229000Y-136366000D02*
X88229000Y-119020000D01*
X88229000Y-114660000D02*
X88229000Y-97314000D01*
X88189000Y-136357000D02*
X88189000Y-119020000D01*
X88189000Y-114660000D02*
X88189000Y-97323000D01*
X88149000Y-136347000D02*
X88149000Y-119020000D01*
X88149000Y-114660000D02*
X88149000Y-97333000D01*
X88109000Y-136338000D02*
X88109000Y-119020000D01*
X88109000Y-114660000D02*
X88109000Y-97342000D01*
X88069000Y-136328000D02*
X88069000Y-119020000D01*
X88069000Y-114660000D02*
X88069000Y-97352000D01*
X88029000Y-136318000D02*
X88029000Y-119020000D01*
X88029000Y-114660000D02*
X88029000Y-97362000D01*
X87989000Y-136309000D02*
X87989000Y-119020000D01*
X87989000Y-114660000D02*
X87989000Y-97371000D01*
X87949000Y-136299000D02*
X87949000Y-119020000D01*
X87949000Y-114660000D02*
X87949000Y-97381000D01*
X87909000Y-136289000D02*
X87909000Y-119020000D01*
X87909000Y-114660000D02*
X87909000Y-97391000D01*
X87869000Y-136279000D02*
X87869000Y-119020000D01*
X87869000Y-114660000D02*
X87869000Y-97401000D01*
X87829000Y-136269000D02*
X87829000Y-119020000D01*
X87829000Y-114660000D02*
X87829000Y-97411000D01*
X87789000Y-136258000D02*
X87789000Y-119020000D01*
X87789000Y-114660000D02*
X87789000Y-97422000D01*
X87749000Y-136248000D02*
X87749000Y-119020000D01*
X87749000Y-114660000D02*
X87749000Y-97432000D01*
X87709000Y-136238000D02*
X87709000Y-119020000D01*
X87709000Y-114660000D02*
X87709000Y-97442000D01*
X87669000Y-136227000D02*
X87669000Y-119020000D01*
X87669000Y-114660000D02*
X87669000Y-97453000D01*
X87629000Y-136217000D02*
X87629000Y-119020000D01*
X87629000Y-114660000D02*
X87629000Y-97463000D01*
X87589000Y-136206000D02*
X87589000Y-119020000D01*
X87589000Y-114660000D02*
X87589000Y-97474000D01*
X87549000Y-136195000D02*
X87549000Y-119020000D01*
X87549000Y-114660000D02*
X87549000Y-97485000D01*
X87509000Y-136184000D02*
X87509000Y-119020000D01*
X87509000Y-114660000D02*
X87509000Y-97496000D01*
X87469000Y-136173000D02*
X87469000Y-119020000D01*
X87469000Y-114660000D02*
X87469000Y-97507000D01*
X87429000Y-136162000D02*
X87429000Y-119020000D01*
X87429000Y-114660000D02*
X87429000Y-97518000D01*
X87389000Y-136151000D02*
X87389000Y-119020000D01*
X87389000Y-114660000D02*
X87389000Y-97529000D01*
X87349000Y-136140000D02*
X87349000Y-119020000D01*
X87349000Y-114660000D02*
X87349000Y-97540000D01*
X87309000Y-136129000D02*
X87309000Y-119020000D01*
X87309000Y-114660000D02*
X87309000Y-97551000D01*
X87269000Y-136117000D02*
X87269000Y-119020000D01*
X87269000Y-114660000D02*
X87269000Y-97563000D01*
X87229000Y-136106000D02*
X87229000Y-119020000D01*
X87229000Y-114660000D02*
X87229000Y-97574000D01*
X87189000Y-136094000D02*
X87189000Y-119020000D01*
X87189000Y-114660000D02*
X87189000Y-97586000D01*
X87149000Y-136083000D02*
X87149000Y-119020000D01*
X87149000Y-114660000D02*
X87149000Y-97597000D01*
X87109000Y-136071000D02*
X87109000Y-119020000D01*
X87109000Y-114660000D02*
X87109000Y-97609000D01*
X87069000Y-136059000D02*
X87069000Y-119020000D01*
X87069000Y-114660000D02*
X87069000Y-97621000D01*
X87029000Y-136047000D02*
X87029000Y-119020000D01*
X87029000Y-114660000D02*
X87029000Y-97633000D01*
X86989000Y-136035000D02*
X86989000Y-119020000D01*
X86989000Y-114660000D02*
X86989000Y-97645000D01*
X86949000Y-136023000D02*
X86949000Y-119020000D01*
X86949000Y-114660000D02*
X86949000Y-97657000D01*
X86909000Y-136011000D02*
X86909000Y-119020000D01*
X86909000Y-114660000D02*
X86909000Y-97669000D01*
X86869000Y-135998000D02*
X86869000Y-119020000D01*
X86869000Y-114660000D02*
X86869000Y-97682000D01*
X86829000Y-135986000D02*
X86829000Y-119020000D01*
X86829000Y-114660000D02*
X86829000Y-97694000D01*
X86789000Y-135974000D02*
X86789000Y-119020000D01*
X86789000Y-114660000D02*
X86789000Y-97706000D01*
X86749000Y-135961000D02*
X86749000Y-119020000D01*
X86749000Y-114660000D02*
X86749000Y-97719000D01*
X86709000Y-135948000D02*
X86709000Y-119020000D01*
X86709000Y-114660000D02*
X86709000Y-97732000D01*
X86669000Y-135936000D02*
X86669000Y-119020000D01*
X86669000Y-114660000D02*
X86669000Y-97744000D01*
X86629000Y-135923000D02*
X86629000Y-119020000D01*
X86629000Y-114660000D02*
X86629000Y-97757000D01*
X86589000Y-135910000D02*
X86589000Y-119020000D01*
X86589000Y-114660000D02*
X86589000Y-97770000D01*
X86549000Y-135897000D02*
X86549000Y-119020000D01*
X86549000Y-114660000D02*
X86549000Y-97783000D01*
X86509000Y-135884000D02*
X86509000Y-119020000D01*
X86509000Y-114660000D02*
X86509000Y-97796000D01*
X86469000Y-135871000D02*
X86469000Y-119020000D01*
X86469000Y-114660000D02*
X86469000Y-97809000D01*
X86429000Y-135857000D02*
X86429000Y-119020000D01*
X86429000Y-114660000D02*
X86429000Y-97823000D01*
X86389000Y-135844000D02*
X86389000Y-119020000D01*
X86389000Y-114660000D02*
X86389000Y-97836000D01*
X86349000Y-135830000D02*
X86349000Y-119020000D01*
X86349000Y-114660000D02*
X86349000Y-97850000D01*
X86309000Y-135817000D02*
X86309000Y-119020000D01*
X86309000Y-114660000D02*
X86309000Y-97863000D01*
X86269000Y-135803000D02*
X86269000Y-119020000D01*
X86269000Y-114660000D02*
X86269000Y-97877000D01*
X86229000Y-135789000D02*
X86229000Y-119020000D01*
X86229000Y-114660000D02*
X86229000Y-97891000D01*
X86189000Y-135775000D02*
X86189000Y-119020000D01*
X86189000Y-114660000D02*
X86189000Y-97905000D01*
X86149000Y-135761000D02*
X86149000Y-119020000D01*
X86149000Y-114660000D02*
X86149000Y-97919000D01*
X86109000Y-135747000D02*
X86109000Y-119020000D01*
X86109000Y-114660000D02*
X86109000Y-97933000D01*
X86069000Y-135733000D02*
X86069000Y-119020000D01*
X86069000Y-114660000D02*
X86069000Y-97947000D01*
X86029000Y-135719000D02*
X86029000Y-119020000D01*
X86029000Y-114660000D02*
X86029000Y-97961000D01*
X85989000Y-135705000D02*
X85989000Y-119020000D01*
X85989000Y-114660000D02*
X85989000Y-97975000D01*
X85949000Y-135690000D02*
X85949000Y-119020000D01*
X85949000Y-114660000D02*
X85949000Y-97990000D01*
X85909000Y-135676000D02*
X85909000Y-119020000D01*
X85909000Y-114660000D02*
X85909000Y-98004000D01*
X85869000Y-135661000D02*
X85869000Y-119020000D01*
X85869000Y-114660000D02*
X85869000Y-98019000D01*
X85829000Y-135646000D02*
X85829000Y-119020000D01*
X85829000Y-114660000D02*
X85829000Y-98034000D01*
X85789000Y-135632000D02*
X85789000Y-119020000D01*
X85789000Y-114660000D02*
X85789000Y-98048000D01*
X85749000Y-135617000D02*
X85749000Y-119020000D01*
X85749000Y-114660000D02*
X85749000Y-98063000D01*
X85709000Y-135602000D02*
X85709000Y-119020000D01*
X85709000Y-114660000D02*
X85709000Y-98078000D01*
X85669000Y-135586000D02*
X85669000Y-119020000D01*
X85669000Y-114660000D02*
X85669000Y-98094000D01*
X85629000Y-135571000D02*
X85629000Y-119020000D01*
X85629000Y-114660000D02*
X85629000Y-98109000D01*
X85589000Y-135556000D02*
X85589000Y-98124000D01*
X85549000Y-135541000D02*
X85549000Y-98139000D01*
X85509000Y-135525000D02*
X85509000Y-98155000D01*
X85469000Y-135509000D02*
X85469000Y-98171000D01*
X85429000Y-135494000D02*
X85429000Y-98186000D01*
X85389000Y-135478000D02*
X85389000Y-98202000D01*
X85349000Y-135462000D02*
X85349000Y-98218000D01*
X85309000Y-135446000D02*
X85309000Y-98234000D01*
X85269000Y-135430000D02*
X85269000Y-98250000D01*
X85229000Y-135414000D02*
X85229000Y-98266000D01*
X85189000Y-135397000D02*
X85189000Y-98283000D01*
X85149000Y-135381000D02*
X85149000Y-98299000D01*
X85109000Y-135365000D02*
X85109000Y-98315000D01*
X85069000Y-135348000D02*
X85069000Y-98332000D01*
X85029000Y-135331000D02*
X85029000Y-98349000D01*
X84989000Y-135314000D02*
X84989000Y-98366000D01*
X84949000Y-135298000D02*
X84949000Y-98382000D01*
X84909000Y-135281000D02*
X84909000Y-98399000D01*
X84869000Y-135263000D02*
X84869000Y-98417000D01*
X84829000Y-135246000D02*
X84829000Y-98434000D01*
X84789000Y-135229000D02*
X84789000Y-98451000D01*
X84749000Y-135212000D02*
X84749000Y-98468000D01*
X84709000Y-135194000D02*
X84709000Y-98486000D01*
X84669000Y-135176000D02*
X84669000Y-98504000D01*
X84629000Y-135159000D02*
X84629000Y-98521000D01*
X84590000Y-135141000D02*
X84590000Y-98539000D01*
X84550000Y-135123000D02*
X84550000Y-98557000D01*
X84510000Y-135105000D02*
X84510000Y-98575000D01*
X84470000Y-135087000D02*
X84470000Y-98593000D01*
X84430000Y-135068000D02*
X84430000Y-98612000D01*
X84390000Y-135050000D02*
X84390000Y-98630000D01*
X84350000Y-135032000D02*
X84350000Y-98648000D01*
X84310000Y-135013000D02*
X84310000Y-98667000D01*
X84270000Y-134994000D02*
X84270000Y-98686000D01*
X84230000Y-134976000D02*
X84230000Y-98704000D01*
X84190000Y-134957000D02*
X84190000Y-98723000D01*
X84150000Y-134938000D02*
X84150000Y-98742000D01*
X84110000Y-134919000D02*
X84110000Y-98761000D01*
X84070000Y-134899000D02*
X84070000Y-98781000D01*
X84030000Y-134880000D02*
X84030000Y-98800000D01*
X83990000Y-134861000D02*
X83990000Y-98819000D01*
X83950000Y-134841000D02*
X83950000Y-98839000D01*
X83910000Y-134821000D02*
X83910000Y-98859000D01*
X83870000Y-134802000D02*
X83870000Y-98878000D01*
X83830000Y-134782000D02*
X83830000Y-98898000D01*
X83790000Y-134762000D02*
X83790000Y-98918000D01*
X83750000Y-134742000D02*
X83750000Y-98938000D01*
X83710000Y-134721000D02*
X83710000Y-98959000D01*
X83670000Y-134701000D02*
X83670000Y-98979000D01*
X83630000Y-134681000D02*
X83630000Y-98999000D01*
X83590000Y-134660000D02*
X83590000Y-99020000D01*
X83550000Y-134640000D02*
X83550000Y-99040000D01*
X83510000Y-134619000D02*
X83510000Y-99061000D01*
X83470000Y-134598000D02*
X83470000Y-99082000D01*
X83430000Y-134577000D02*
X83430000Y-99103000D01*
X83390000Y-134556000D02*
X83390000Y-99124000D01*
X83350000Y-134534000D02*
X83350000Y-99146000D01*
X83310000Y-134513000D02*
X83310000Y-99167000D01*
X83270000Y-134492000D02*
X83270000Y-99188000D01*
X83230000Y-134470000D02*
X83230000Y-99210000D01*
X83190000Y-134448000D02*
X83190000Y-99232000D01*
X83150000Y-134427000D02*
X83150000Y-99253000D01*
X83110000Y-134405000D02*
X83110000Y-99275000D01*
X83070000Y-134383000D02*
X83070000Y-99297000D01*
X83030000Y-134360000D02*
X83030000Y-99320000D01*
X82990000Y-134338000D02*
X82990000Y-99342000D01*
X82950000Y-134316000D02*
X82950000Y-99364000D01*
X82910000Y-134293000D02*
X82910000Y-99387000D01*
X82870000Y-134271000D02*
X82870000Y-99409000D01*
X82830000Y-134248000D02*
X82830000Y-99432000D01*
X82790000Y-134225000D02*
X82790000Y-99455000D01*
X82750000Y-134202000D02*
X82750000Y-99478000D01*
X82710000Y-134179000D02*
X82710000Y-99501000D01*
X82670000Y-134155000D02*
X82670000Y-99525000D01*
X82630000Y-134132000D02*
X82630000Y-99548000D01*
X82590000Y-134109000D02*
X82590000Y-99571000D01*
X82550000Y-134085000D02*
X82550000Y-99595000D01*
X82510000Y-134061000D02*
X82510000Y-99619000D01*
X82470000Y-134037000D02*
X82470000Y-99643000D01*
X82430000Y-134013000D02*
X82430000Y-99667000D01*
X82390000Y-133989000D02*
X82390000Y-99691000D01*
X82350000Y-133965000D02*
X82350000Y-99715000D01*
X82310000Y-133940000D02*
X82310000Y-99740000D01*
X82270000Y-133916000D02*
X82270000Y-99764000D01*
X82230000Y-133891000D02*
X82230000Y-99789000D01*
X82190000Y-133866000D02*
X82190000Y-99814000D01*
X82150000Y-133842000D02*
X82150000Y-99838000D01*
X82110000Y-133817000D02*
X82110000Y-99863000D01*
X82070000Y-133791000D02*
X82070000Y-99889000D01*
X82030000Y-133766000D02*
X82030000Y-99914000D01*
X81990000Y-133741000D02*
X81990000Y-99939000D01*
X81950000Y-133715000D02*
X81950000Y-99965000D01*
X81910000Y-133689000D02*
X81910000Y-99991000D01*
X81870000Y-133664000D02*
X81870000Y-100016000D01*
X81830000Y-133638000D02*
X81830000Y-100042000D01*
X81790000Y-133611000D02*
X81790000Y-100069000D01*
X81750000Y-133585000D02*
X81750000Y-100095000D01*
X81710000Y-133559000D02*
X81710000Y-100121000D01*
X81670000Y-133532000D02*
X81670000Y-100148000D01*
X81630000Y-133506000D02*
X81630000Y-100174000D01*
X81590000Y-133479000D02*
X81590000Y-100201000D01*
X81550000Y-133452000D02*
X81550000Y-100228000D01*
X81510000Y-133425000D02*
X81510000Y-100255000D01*
X81470000Y-133398000D02*
X81470000Y-100282000D01*
X81430000Y-133370000D02*
X81430000Y-100310000D01*
X81390000Y-133343000D02*
X81390000Y-100337000D01*
X81350000Y-133315000D02*
X81350000Y-100365000D01*
X81310000Y-133287000D02*
X81310000Y-100393000D01*
X81270000Y-133259000D02*
X81270000Y-100421000D01*
X81230000Y-133231000D02*
X81230000Y-100449000D01*
X81190000Y-133203000D02*
X81190000Y-100477000D01*
X81150000Y-133175000D02*
X81150000Y-100505000D01*
X81110000Y-133146000D02*
X81110000Y-100534000D01*
X81070000Y-133118000D02*
X81070000Y-100562000D01*
X81030000Y-133089000D02*
X81030000Y-100591000D01*
X80990000Y-133060000D02*
X80990000Y-100620000D01*
X80950000Y-133031000D02*
X80950000Y-100649000D01*
X80910000Y-133002000D02*
X80910000Y-100678000D01*
X80870000Y-132972000D02*
X80870000Y-100708000D01*
X80830000Y-132943000D02*
X80830000Y-100737000D01*
X80790000Y-132913000D02*
X80790000Y-100767000D01*
X80750000Y-132883000D02*
X80750000Y-100797000D01*
X80710000Y-132853000D02*
X80710000Y-100827000D01*
X80670000Y-132823000D02*
X80670000Y-100857000D01*
X80630000Y-132792000D02*
X80630000Y-100888000D01*
X80590000Y-132762000D02*
X80590000Y-100918000D01*
X80550000Y-132731000D02*
X80550000Y-100949000D01*
X80510000Y-132700000D02*
X80510000Y-100980000D01*
X80470000Y-132670000D02*
X80470000Y-101010000D01*
X80430000Y-132638000D02*
X80430000Y-101042000D01*
X80390000Y-132607000D02*
X80390000Y-101073000D01*
X80350000Y-132576000D02*
X80350000Y-101104000D01*
X80310000Y-132544000D02*
X80310000Y-101136000D01*
X80270000Y-132512000D02*
X80270000Y-101168000D01*
X80230000Y-132480000D02*
X80230000Y-101200000D01*
X80190000Y-132448000D02*
X80190000Y-101232000D01*
X80150000Y-132416000D02*
X80150000Y-101264000D01*
X80110000Y-132383000D02*
X80110000Y-101297000D01*
X80070000Y-132351000D02*
X80070000Y-101329000D01*
X80030000Y-132318000D02*
X80030000Y-101362000D01*
X79990000Y-132285000D02*
X79990000Y-101395000D01*
X79950000Y-132252000D02*
X79950000Y-101428000D01*
X79910000Y-132218000D02*
X79910000Y-101462000D01*
X79870000Y-132185000D02*
X79870000Y-101495000D01*
X79830000Y-132151000D02*
X79830000Y-101529000D01*
X79790000Y-132117000D02*
X79790000Y-101563000D01*
X79750000Y-132083000D02*
X79750000Y-101597000D01*
X79710000Y-132049000D02*
X79710000Y-101631000D01*
X79670000Y-132015000D02*
X79670000Y-101665000D01*
X79630000Y-131980000D02*
X79630000Y-101700000D01*
X79590000Y-131945000D02*
X79590000Y-101735000D01*
X79550000Y-131910000D02*
X79550000Y-101770000D01*
X79510000Y-131875000D02*
X79510000Y-101805000D01*
X79470000Y-131840000D02*
X79470000Y-101840000D01*
X79430000Y-131804000D02*
X79430000Y-101876000D01*
X79390000Y-131769000D02*
X79390000Y-101911000D01*
X79350000Y-131733000D02*
X79350000Y-101947000D01*
X79310000Y-131697000D02*
X79310000Y-101983000D01*
X79270000Y-131660000D02*
X79270000Y-102020000D01*
X79230000Y-131624000D02*
X79230000Y-102056000D01*
X79190000Y-131587000D02*
X79190000Y-102093000D01*
X79150000Y-131550000D02*
X79150000Y-102130000D01*
X79110000Y-131513000D02*
X79110000Y-102167000D01*
X79070000Y-131476000D02*
X79070000Y-102204000D01*
X79030000Y-131438000D02*
X79030000Y-102242000D01*
X78990000Y-131401000D02*
X78990000Y-102279000D01*
X78950000Y-131363000D02*
X78950000Y-102317000D01*
X78910000Y-131325000D02*
X78910000Y-102355000D01*
X78870000Y-131286000D02*
X78870000Y-102394000D01*
X78830000Y-131248000D02*
X78830000Y-102432000D01*
X78790000Y-131209000D02*
X78790000Y-102471000D01*
X78750000Y-131170000D02*
X78750000Y-102510000D01*
X78710000Y-131131000D02*
X78710000Y-102549000D01*
X78670000Y-131092000D02*
X78670000Y-102588000D01*
X78630000Y-131052000D02*
X78630000Y-102628000D01*
X78590000Y-131012000D02*
X78590000Y-102668000D01*
X78550000Y-130972000D02*
X78550000Y-102708000D01*
X78510000Y-130932000D02*
X78510000Y-102748000D01*
X78470000Y-130891000D02*
X78470000Y-102789000D01*
X78430000Y-130850000D02*
X78430000Y-102830000D01*
X78390000Y-130809000D02*
X78390000Y-102871000D01*
X78350000Y-130768000D02*
X78350000Y-102912000D01*
X78310000Y-130727000D02*
X78310000Y-102953000D01*
X78270000Y-130685000D02*
X78270000Y-102995000D01*
X78230000Y-130643000D02*
X78230000Y-103037000D01*
X78190000Y-130601000D02*
X78190000Y-103079000D01*
X78150000Y-130558000D02*
X78150000Y-103122000D01*
X78110000Y-130516000D02*
X78110000Y-103164000D01*
X78070000Y-130473000D02*
X78070000Y-103207000D01*
X78030000Y-130430000D02*
X78030000Y-103250000D01*
X77990000Y-130386000D02*
X77990000Y-103294000D01*
X77950000Y-130342000D02*
X77950000Y-103338000D01*
X77910000Y-130298000D02*
X77910000Y-103382000D01*
X77870000Y-130254000D02*
X77870000Y-103426000D01*
X77830000Y-130210000D02*
X77830000Y-103470000D01*
X77790000Y-130165000D02*
X77790000Y-103515000D01*
X77750000Y-130120000D02*
X77750000Y-103560000D01*
X77710000Y-130075000D02*
X77710000Y-103605000D01*
X77670000Y-130029000D02*
X77670000Y-103651000D01*
X77630000Y-129983000D02*
X77630000Y-103697000D01*
X77590000Y-129937000D02*
X77590000Y-103743000D01*
X77550000Y-129891000D02*
X77550000Y-103789000D01*
X77510000Y-129844000D02*
X77510000Y-103836000D01*
X77470000Y-129797000D02*
X77470000Y-103883000D01*
X77430000Y-129750000D02*
X77430000Y-103930000D01*
X77390000Y-129702000D02*
X77390000Y-103978000D01*
X77350000Y-129654000D02*
X77350000Y-104026000D01*
X77310000Y-129606000D02*
X77310000Y-104074000D01*
X77270000Y-129557000D02*
X77270000Y-104123000D01*
X77230000Y-129509000D02*
X77230000Y-104171000D01*
X77190000Y-129459000D02*
X77190000Y-104221000D01*
X77150000Y-129410000D02*
X77150000Y-104270000D01*
X77110000Y-129360000D02*
X77110000Y-104320000D01*
X77070000Y-129310000D02*
X77070000Y-104370000D01*
X77030000Y-129260000D02*
X77030000Y-104420000D01*
X76990000Y-129209000D02*
X76990000Y-104471000D01*
X76950000Y-129158000D02*
X76950000Y-104522000D01*
X76910000Y-129106000D02*
X76910000Y-104574000D01*
X76870000Y-129055000D02*
X76870000Y-104625000D01*
X76830000Y-129002000D02*
X76830000Y-104678000D01*
X76790000Y-128950000D02*
X76790000Y-104730000D01*
X76750000Y-128897000D02*
X76750000Y-104783000D01*
X76710000Y-128844000D02*
X76710000Y-104836000D01*
X76670000Y-128790000D02*
X76670000Y-104890000D01*
X76630000Y-128736000D02*
X76630000Y-104944000D01*
X76590000Y-128682000D02*
X76590000Y-104998000D01*
X76550000Y-128627000D02*
X76550000Y-105053000D01*
X76510000Y-128572000D02*
X76510000Y-105108000D01*
X76470000Y-128517000D02*
X76470000Y-105163000D01*
X76430000Y-128461000D02*
X76430000Y-105219000D01*
X76390000Y-128404000D02*
X76390000Y-105276000D01*
X76350000Y-128348000D02*
X76350000Y-105332000D01*
X76310000Y-128290000D02*
X76310000Y-105390000D01*
X76270000Y-128233000D02*
X76270000Y-105447000D01*
X76230000Y-128175000D02*
X76230000Y-105505000D01*
X76190000Y-128116000D02*
X76190000Y-105564000D01*
X76150000Y-128057000D02*
X76150000Y-105623000D01*
X76110000Y-127998000D02*
X76110000Y-105682000D01*
X76070000Y-127938000D02*
X76070000Y-105742000D01*
X76030000Y-127878000D02*
X76030000Y-105802000D01*
X75990000Y-127817000D02*
X75990000Y-105863000D01*
X75950000Y-127756000D02*
X75950000Y-105924000D01*
X75910000Y-127694000D02*
X75910000Y-105986000D01*
X75870000Y-127632000D02*
X75870000Y-106048000D01*
X75830000Y-127569000D02*
X75830000Y-106111000D01*
X75790000Y-127506000D02*
X75790000Y-106174000D01*
X75750000Y-127442000D02*
X75750000Y-106238000D01*
X75710000Y-127378000D02*
X75710000Y-106302000D01*
X75670000Y-127313000D02*
X75670000Y-106367000D01*
X75630000Y-127248000D02*
X75630000Y-106432000D01*
X75590000Y-127182000D02*
X75590000Y-106498000D01*
X75550000Y-127115000D02*
X75550000Y-106565000D01*
X75510000Y-127048000D02*
X75510000Y-106632000D01*
X75470000Y-126980000D02*
X75470000Y-106700000D01*
X75430000Y-126912000D02*
X75430000Y-106768000D01*
X75390000Y-126843000D02*
X75390000Y-106837000D01*
X75350000Y-126773000D02*
X75350000Y-106907000D01*
X75310000Y-126703000D02*
X75310000Y-106977000D01*
X75270000Y-126632000D02*
X75270000Y-107048000D01*
X75230000Y-126560000D02*
X75230000Y-107120000D01*
X75190000Y-126488000D02*
X75190000Y-107192000D01*
X75150000Y-126415000D02*
X75150000Y-107265000D01*
X75110000Y-126341000D02*
X75110000Y-107339000D01*
X75070000Y-126267000D02*
X75070000Y-107413000D01*
X75030000Y-126191000D02*
X75030000Y-107489000D01*
X74990000Y-126115000D02*
X74990000Y-107565000D01*
X74950000Y-126039000D02*
X74950000Y-107641000D01*
X74910000Y-125961000D02*
X74910000Y-107719000D01*
X74870000Y-125882000D02*
X74870000Y-107798000D01*
X74830000Y-125803000D02*
X74830000Y-107877000D01*
X74790000Y-125723000D02*
X74790000Y-107957000D01*
X74750000Y-125642000D02*
X74750000Y-108038000D01*
X74710000Y-125560000D02*
X74710000Y-108120000D01*
X74670000Y-125477000D02*
X74670000Y-108203000D01*
X74630000Y-125393000D02*
X74630000Y-108287000D01*
X74590000Y-125307000D02*
X74590000Y-108373000D01*
X74550000Y-125221000D02*
X74550000Y-108459000D01*
X74510000Y-125134000D02*
X74510000Y-108546000D01*
X74470000Y-125046000D02*
X74470000Y-108634000D01*
X74430000Y-124956000D02*
X74430000Y-108724000D01*
X74390000Y-124866000D02*
X74390000Y-108814000D01*
X74350000Y-124774000D02*
X74350000Y-108906000D01*
X74310000Y-124681000D02*
X74310000Y-108999000D01*
X74270000Y-124586000D02*
X74270000Y-109094000D01*
X74230000Y-124490000D02*
X74230000Y-109190000D01*
X74190000Y-124393000D02*
X74190000Y-109287000D01*
X74150000Y-124294000D02*
X74150000Y-109386000D01*
X74110000Y-124194000D02*
X74110000Y-109486000D01*
X74070000Y-124092000D02*
X74070000Y-109588000D01*
X74030000Y-123989000D02*
X74030000Y-109691000D01*
X73990000Y-123883000D02*
X73990000Y-109797000D01*
X73950000Y-123776000D02*
X73950000Y-109904000D01*
X73910000Y-123667000D02*
X73910000Y-110013000D01*
X73870000Y-123556000D02*
X73870000Y-110124000D01*
X73830000Y-123443000D02*
X73830000Y-110237000D01*
X73790000Y-123328000D02*
X73790000Y-110352000D01*
X73750000Y-123210000D02*
X73750000Y-110470000D01*
X73710000Y-123090000D02*
X73710000Y-110590000D01*
X73670000Y-122968000D02*
X73670000Y-110712000D01*
X73630000Y-122842000D02*
X73630000Y-110838000D01*
X73590000Y-122714000D02*
X73590000Y-110966000D01*
X73550000Y-122582000D02*
X73550000Y-111098000D01*
X73510000Y-122448000D02*
X73510000Y-111232000D01*
X73470000Y-122309000D02*
X73470000Y-111371000D01*
X73430000Y-122167000D02*
X73430000Y-111513000D01*
X73390000Y-122020000D02*
X73390000Y-111660000D01*
X73350000Y-121869000D02*
X73350000Y-111811000D01*
X73310000Y-121714000D02*
X73310000Y-111966000D01*
X73270000Y-121552000D02*
X73270000Y-112128000D01*
X73230000Y-121385000D02*
X73230000Y-112295000D01*
X73190000Y-121211000D02*
X73190000Y-112469000D01*
X73150000Y-121029000D02*
X73150000Y-112651000D01*
X73110000Y-120839000D02*
X73110000Y-112841000D01*
X73070000Y-120638000D02*
X73070000Y-113042000D01*
X73030000Y-120427000D02*
X73030000Y-113253000D01*
X72990000Y-120202000D02*
X72990000Y-113478000D01*
X72950000Y-119960000D02*
X72950000Y-113720000D01*
X72910000Y-119698000D02*
X72910000Y-113982000D01*
X72870000Y-119409000D02*
X72870000Y-114271000D01*
X72830000Y-119082000D02*
X72830000Y-114598000D01*
X72790000Y-118700000D02*
X72790000Y-114980000D01*
X72750000Y-118217000D02*
X72750000Y-115463000D01*
X72710000Y-117434000D02*
X72710000Y-116246000D01*
X102990000Y-116840000D02*
X99990000Y-116840000D01*
X101490000Y-118340000D02*
X101490000Y-115340000D01*
X149070000Y-115610000D02*
X142950000Y-115610000D01*
X149070000Y-112990000D02*
X142950000Y-112990000D01*
X149070000Y-115610000D02*
X149070000Y-115296000D01*
X149070000Y-113304000D02*
X149070000Y-112990000D01*
X142950000Y-115610000D02*
X142950000Y-115296000D01*
X142950000Y-113304000D02*
X142950000Y-112990000D01*
X119420000Y-69940000D02*
X119420000Y-74760000D01*
X116800000Y-69940000D02*
X116800000Y-74760000D01*
X119420000Y-69940000D02*
X119106000Y-69940000D01*
X117114000Y-69940000D02*
X116800000Y-69940000D01*
X119420000Y-74760000D02*
X119106000Y-74760000D01*
X117114000Y-74760000D02*
X116800000Y-74760000D01*
X172405896Y-84091090D02*
G75*
G03X172410000Y-96369967I1584104J-6138910D01*
G01*
X175574104Y-84091090D02*
G75*
G02X175570000Y-96369967I-1584104J-6138910D01*
G01*
X175574104Y-84091090D02*
G75*
G03X172410000Y-84090033I-1584104J-6138910D01*
G01*
X167690000Y-90230000D02*
X180290000Y-90230000D01*
X167690000Y-90190000D02*
X180290000Y-90190000D01*
X167690000Y-90150000D02*
X180290000Y-90150000D01*
X167691000Y-90110000D02*
X180289000Y-90110000D01*
X167692000Y-90070000D02*
X180288000Y-90070000D01*
X167693000Y-90030000D02*
X180287000Y-90030000D01*
X167694000Y-89990000D02*
X180286000Y-89990000D01*
X167696000Y-89950000D02*
X180284000Y-89950000D01*
X167698000Y-89910000D02*
X180282000Y-89910000D01*
X167700000Y-89870000D02*
X180280000Y-89870000D01*
X167702000Y-89830000D02*
X180278000Y-89830000D01*
X167705000Y-89790000D02*
X180275000Y-89790000D01*
X167708000Y-89750000D02*
X180272000Y-89750000D01*
X167711000Y-89710000D02*
X180269000Y-89710000D01*
X167714000Y-89670000D02*
X180266000Y-89670000D01*
X167718000Y-89630000D02*
X180262000Y-89630000D01*
X167722000Y-89590000D02*
X180258000Y-89590000D01*
X167726000Y-89550000D02*
X180254000Y-89550000D01*
X167731000Y-89509000D02*
X180249000Y-89509000D01*
X167735000Y-89469000D02*
X180245000Y-89469000D01*
X167740000Y-89429000D02*
X180240000Y-89429000D01*
X167745000Y-89389000D02*
X180235000Y-89389000D01*
X167751000Y-89349000D02*
X180229000Y-89349000D01*
X167757000Y-89309000D02*
X180223000Y-89309000D01*
X167763000Y-89269000D02*
X180217000Y-89269000D01*
X167769000Y-89229000D02*
X180211000Y-89229000D01*
X167775000Y-89189000D02*
X180205000Y-89189000D01*
X167782000Y-89149000D02*
X180198000Y-89149000D01*
X167789000Y-89109000D02*
X180191000Y-89109000D01*
X167797000Y-89069000D02*
X180183000Y-89069000D01*
X167804000Y-89029000D02*
X180176000Y-89029000D01*
X167812000Y-88989000D02*
X180168000Y-88989000D01*
X167820000Y-88949000D02*
X180160000Y-88949000D01*
X167828000Y-88909000D02*
X180152000Y-88909000D01*
X167837000Y-88869000D02*
X180143000Y-88869000D01*
X167846000Y-88829000D02*
X180134000Y-88829000D01*
X167855000Y-88789000D02*
X180125000Y-88789000D01*
X167865000Y-88749000D02*
X180115000Y-88749000D01*
X167874000Y-88709000D02*
X180106000Y-88709000D01*
X167884000Y-88669000D02*
X180096000Y-88669000D01*
X167895000Y-88629000D02*
X180085000Y-88629000D01*
X167905000Y-88589000D02*
X180075000Y-88589000D01*
X167916000Y-88549000D02*
X180064000Y-88549000D01*
X167927000Y-88509000D02*
X180053000Y-88509000D01*
X167939000Y-88469000D02*
X180041000Y-88469000D01*
X167950000Y-88429000D02*
X180030000Y-88429000D01*
X167962000Y-88389000D02*
X180018000Y-88389000D01*
X167975000Y-88349000D02*
X180005000Y-88349000D01*
X167987000Y-88309000D02*
X179993000Y-88309000D01*
X168000000Y-88269000D02*
X179980000Y-88269000D01*
X168013000Y-88229000D02*
X179967000Y-88229000D01*
X168027000Y-88189000D02*
X179953000Y-88189000D01*
X168040000Y-88149000D02*
X179940000Y-88149000D01*
X168054000Y-88109000D02*
X179926000Y-88109000D01*
X168069000Y-88069000D02*
X179911000Y-88069000D01*
X168083000Y-88029000D02*
X179897000Y-88029000D01*
X168098000Y-87989000D02*
X179882000Y-87989000D01*
X168114000Y-87949000D02*
X179866000Y-87949000D01*
X168129000Y-87909000D02*
X179851000Y-87909000D01*
X168145000Y-87869000D02*
X179835000Y-87869000D01*
X168161000Y-87829000D02*
X172610000Y-87829000D01*
X175370000Y-87829000D02*
X179819000Y-87829000D01*
X168178000Y-87789000D02*
X172610000Y-87789000D01*
X175370000Y-87789000D02*
X179802000Y-87789000D01*
X168195000Y-87749000D02*
X172610000Y-87749000D01*
X175370000Y-87749000D02*
X179785000Y-87749000D01*
X168212000Y-87709000D02*
X172610000Y-87709000D01*
X175370000Y-87709000D02*
X179768000Y-87709000D01*
X168229000Y-87669000D02*
X172610000Y-87669000D01*
X175370000Y-87669000D02*
X179751000Y-87669000D01*
X168247000Y-87629000D02*
X172610000Y-87629000D01*
X175370000Y-87629000D02*
X179733000Y-87629000D01*
X168265000Y-87589000D02*
X172610000Y-87589000D01*
X175370000Y-87589000D02*
X179715000Y-87589000D01*
X168284000Y-87549000D02*
X172610000Y-87549000D01*
X175370000Y-87549000D02*
X179696000Y-87549000D01*
X168303000Y-87509000D02*
X172610000Y-87509000D01*
X175370000Y-87509000D02*
X179677000Y-87509000D01*
X168322000Y-87469000D02*
X172610000Y-87469000D01*
X175370000Y-87469000D02*
X179658000Y-87469000D01*
X168341000Y-87429000D02*
X172610000Y-87429000D01*
X175370000Y-87429000D02*
X179639000Y-87429000D01*
X168361000Y-87389000D02*
X172610000Y-87389000D01*
X175370000Y-87389000D02*
X179619000Y-87389000D01*
X168381000Y-87349000D02*
X172610000Y-87349000D01*
X175370000Y-87349000D02*
X179599000Y-87349000D01*
X168402000Y-87309000D02*
X172610000Y-87309000D01*
X175370000Y-87309000D02*
X179578000Y-87309000D01*
X168423000Y-87269000D02*
X172610000Y-87269000D01*
X175370000Y-87269000D02*
X179557000Y-87269000D01*
X168444000Y-87229000D02*
X172610000Y-87229000D01*
X175370000Y-87229000D02*
X179536000Y-87229000D01*
X168466000Y-87189000D02*
X172610000Y-87189000D01*
X175370000Y-87189000D02*
X179514000Y-87189000D01*
X168488000Y-87149000D02*
X172610000Y-87149000D01*
X175370000Y-87149000D02*
X179492000Y-87149000D01*
X168510000Y-87109000D02*
X172610000Y-87109000D01*
X175370000Y-87109000D02*
X179470000Y-87109000D01*
X168533000Y-87069000D02*
X172610000Y-87069000D01*
X175370000Y-87069000D02*
X179447000Y-87069000D01*
X168556000Y-87029000D02*
X172610000Y-87029000D01*
X175370000Y-87029000D02*
X179424000Y-87029000D01*
X168580000Y-86989000D02*
X172610000Y-86989000D01*
X175370000Y-86989000D02*
X179400000Y-86989000D01*
X168604000Y-86949000D02*
X172610000Y-86949000D01*
X175370000Y-86949000D02*
X179376000Y-86949000D01*
X168628000Y-86909000D02*
X172610000Y-86909000D01*
X175370000Y-86909000D02*
X179352000Y-86909000D01*
X168653000Y-86869000D02*
X172610000Y-86869000D01*
X175370000Y-86869000D02*
X179327000Y-86869000D01*
X168678000Y-86829000D02*
X172610000Y-86829000D01*
X175370000Y-86829000D02*
X179302000Y-86829000D01*
X168704000Y-86789000D02*
X172610000Y-86789000D01*
X175370000Y-86789000D02*
X179276000Y-86789000D01*
X168730000Y-86749000D02*
X172610000Y-86749000D01*
X175370000Y-86749000D02*
X179250000Y-86749000D01*
X168756000Y-86709000D02*
X172610000Y-86709000D01*
X175370000Y-86709000D02*
X179224000Y-86709000D01*
X168783000Y-86669000D02*
X172610000Y-86669000D01*
X175370000Y-86669000D02*
X179197000Y-86669000D01*
X168811000Y-86629000D02*
X172610000Y-86629000D01*
X175370000Y-86629000D02*
X179169000Y-86629000D01*
X168839000Y-86589000D02*
X172610000Y-86589000D01*
X175370000Y-86589000D02*
X179141000Y-86589000D01*
X168867000Y-86549000D02*
X172610000Y-86549000D01*
X175370000Y-86549000D02*
X179113000Y-86549000D01*
X168896000Y-86509000D02*
X172610000Y-86509000D01*
X175370000Y-86509000D02*
X179084000Y-86509000D01*
X168925000Y-86469000D02*
X172610000Y-86469000D01*
X175370000Y-86469000D02*
X179055000Y-86469000D01*
X168955000Y-86429000D02*
X172610000Y-86429000D01*
X175370000Y-86429000D02*
X179025000Y-86429000D01*
X168985000Y-86389000D02*
X172610000Y-86389000D01*
X175370000Y-86389000D02*
X178995000Y-86389000D01*
X169015000Y-86349000D02*
X172610000Y-86349000D01*
X175370000Y-86349000D02*
X178965000Y-86349000D01*
X169047000Y-86309000D02*
X172610000Y-86309000D01*
X175370000Y-86309000D02*
X178933000Y-86309000D01*
X169078000Y-86269000D02*
X172610000Y-86269000D01*
X175370000Y-86269000D02*
X178902000Y-86269000D01*
X169111000Y-86229000D02*
X172610000Y-86229000D01*
X175370000Y-86229000D02*
X178869000Y-86229000D01*
X169143000Y-86189000D02*
X172610000Y-86189000D01*
X175370000Y-86189000D02*
X178837000Y-86189000D01*
X169177000Y-86149000D02*
X172610000Y-86149000D01*
X175370000Y-86149000D02*
X178803000Y-86149000D01*
X169211000Y-86109000D02*
X172610000Y-86109000D01*
X175370000Y-86109000D02*
X178769000Y-86109000D01*
X169245000Y-86069000D02*
X172610000Y-86069000D01*
X175370000Y-86069000D02*
X178735000Y-86069000D01*
X169280000Y-86029000D02*
X172610000Y-86029000D01*
X175370000Y-86029000D02*
X178700000Y-86029000D01*
X169316000Y-85989000D02*
X172610000Y-85989000D01*
X175370000Y-85989000D02*
X178664000Y-85989000D01*
X169352000Y-85949000D02*
X172610000Y-85949000D01*
X175370000Y-85949000D02*
X178628000Y-85949000D01*
X169389000Y-85909000D02*
X172610000Y-85909000D01*
X175370000Y-85909000D02*
X178591000Y-85909000D01*
X169427000Y-85869000D02*
X172610000Y-85869000D01*
X175370000Y-85869000D02*
X178553000Y-85869000D01*
X169465000Y-85829000D02*
X172610000Y-85829000D01*
X175370000Y-85829000D02*
X178515000Y-85829000D01*
X169504000Y-85789000D02*
X172610000Y-85789000D01*
X175370000Y-85789000D02*
X178476000Y-85789000D01*
X169543000Y-85749000D02*
X172610000Y-85749000D01*
X175370000Y-85749000D02*
X178437000Y-85749000D01*
X169584000Y-85709000D02*
X172610000Y-85709000D01*
X175370000Y-85709000D02*
X178396000Y-85709000D01*
X169625000Y-85669000D02*
X172610000Y-85669000D01*
X175370000Y-85669000D02*
X178355000Y-85669000D01*
X169667000Y-85629000D02*
X172610000Y-85629000D01*
X175370000Y-85629000D02*
X178313000Y-85629000D01*
X169709000Y-85589000D02*
X172610000Y-85589000D01*
X175370000Y-85589000D02*
X178271000Y-85589000D01*
X169752000Y-85549000D02*
X172610000Y-85549000D01*
X175370000Y-85549000D02*
X178228000Y-85549000D01*
X169797000Y-85509000D02*
X172610000Y-85509000D01*
X175370000Y-85509000D02*
X178183000Y-85509000D01*
X169842000Y-85469000D02*
X172610000Y-85469000D01*
X175370000Y-85469000D02*
X178138000Y-85469000D01*
X169888000Y-85429000D02*
X172610000Y-85429000D01*
X175370000Y-85429000D02*
X178092000Y-85429000D01*
X169934000Y-85389000D02*
X172610000Y-85389000D01*
X175370000Y-85389000D02*
X178046000Y-85389000D01*
X169982000Y-85349000D02*
X172610000Y-85349000D01*
X175370000Y-85349000D02*
X177998000Y-85349000D01*
X170031000Y-85309000D02*
X172610000Y-85309000D01*
X175370000Y-85309000D02*
X177949000Y-85309000D01*
X170081000Y-85269000D02*
X172610000Y-85269000D01*
X175370000Y-85269000D02*
X177899000Y-85269000D01*
X170131000Y-85229000D02*
X172610000Y-85229000D01*
X175370000Y-85229000D02*
X177849000Y-85229000D01*
X170183000Y-85189000D02*
X172610000Y-85189000D01*
X175370000Y-85189000D02*
X177797000Y-85189000D01*
X170236000Y-85149000D02*
X172610000Y-85149000D01*
X175370000Y-85149000D02*
X177744000Y-85149000D01*
X170290000Y-85109000D02*
X172610000Y-85109000D01*
X175370000Y-85109000D02*
X177690000Y-85109000D01*
X170346000Y-85069000D02*
X177634000Y-85069000D01*
X170402000Y-85029000D02*
X177578000Y-85029000D01*
X170460000Y-84989000D02*
X177520000Y-84989000D01*
X170520000Y-84949000D02*
X177460000Y-84949000D01*
X170581000Y-84909000D02*
X177399000Y-84909000D01*
X170643000Y-84869000D02*
X177337000Y-84869000D01*
X170708000Y-84829000D02*
X177272000Y-84829000D01*
X170773000Y-84789000D02*
X177207000Y-84789000D01*
X170841000Y-84749000D02*
X177139000Y-84749000D01*
X170911000Y-84709000D02*
X177069000Y-84709000D01*
X170983000Y-84669000D02*
X176997000Y-84669000D01*
X171057000Y-84629000D02*
X176923000Y-84629000D01*
X171134000Y-84589000D02*
X176846000Y-84589000D01*
X171213000Y-84549000D02*
X176767000Y-84549000D01*
X171295000Y-84509000D02*
X176685000Y-84509000D01*
X171380000Y-84469000D02*
X176600000Y-84469000D01*
X171469000Y-84429000D02*
X176511000Y-84429000D01*
X171562000Y-84389000D02*
X176418000Y-84389000D01*
X171659000Y-84349000D02*
X176321000Y-84349000D01*
X171760000Y-84309000D02*
X176220000Y-84309000D01*
X171868000Y-84269000D02*
X176112000Y-84269000D01*
X171981000Y-84229000D02*
X175999000Y-84229000D01*
X172102000Y-84189000D02*
X175878000Y-84189000D01*
X172233000Y-84149000D02*
X175747000Y-84149000D01*
X172374000Y-84109000D02*
X175606000Y-84109000D01*
X172530000Y-84069000D02*
X175450000Y-84069000D01*
X172705000Y-84029000D02*
X175275000Y-84029000D01*
X172908000Y-83989000D02*
X175072000Y-83989000D01*
X173159000Y-83949000D02*
X174821000Y-83949000D01*
X173526000Y-83909000D02*
X174454000Y-83909000D01*
X173990000Y-97180000D02*
X173990000Y-95380000D01*
X173090000Y-96280000D02*
X174890000Y-96280000D01*
D12*
X140250000Y-121630000D02*
X116850000Y-121630000D01*
X116850000Y-121630000D02*
X116850000Y-115830000D01*
X116850000Y-115830000D02*
X140250000Y-115830000D01*
X140250000Y-115830000D02*
X140250000Y-121630000D01*
D11*
X121870000Y-101010000D02*
X121870000Y-104730000D01*
X121870000Y-104730000D02*
X129590000Y-104730000D01*
X129590000Y-104730000D02*
X129590000Y-101010000D01*
X129590000Y-101010000D02*
X121870000Y-101010000D01*
X119490000Y-102870000D02*
X121870000Y-102870000D01*
X131970000Y-102870000D02*
X129590000Y-102870000D01*
X123070000Y-101010000D02*
X123070000Y-104730000D01*
X121870000Y-107360000D02*
X121870000Y-111080000D01*
X121870000Y-111080000D02*
X129590000Y-111080000D01*
X129590000Y-111080000D02*
X129590000Y-107360000D01*
X129590000Y-107360000D02*
X121870000Y-107360000D01*
X119490000Y-109220000D02*
X121870000Y-109220000D01*
X131970000Y-109220000D02*
X129590000Y-109220000D01*
X123070000Y-107360000D02*
X123070000Y-111080000D01*
X139250000Y-107949538D02*
G75*
G03X144800000Y-109494830I2990000J-462D01*
G01*
X139250000Y-107950462D02*
G75*
G02X144800000Y-106405170I2990000J462D01*
G01*
X144740000Y-107950000D02*
G75*
G03X144740000Y-107950000I-2500000J0D01*
G01*
X144800000Y-109495000D02*
X144800000Y-106405000D01*
X123070000Y-82410000D02*
X123070000Y-85230000D01*
X123070000Y-85230000D02*
X128390000Y-85230000D01*
X128390000Y-85230000D02*
X128390000Y-82410000D01*
X128390000Y-82410000D02*
X123070000Y-82410000D01*
X121930000Y-83820000D02*
X123070000Y-83820000D01*
X129530000Y-83820000D02*
X128390000Y-83820000D01*
X123910000Y-82410000D02*
X123910000Y-85230000D01*
X132530000Y-72390462D02*
G75*
G03X126980000Y-70845170I-2990000J462D01*
G01*
X132530000Y-72389538D02*
G75*
G02X126980000Y-73934830I-2990000J-462D01*
G01*
X132040000Y-72390000D02*
G75*
G03X132040000Y-72390000I-2500000J0D01*
G01*
X126980000Y-70845000D02*
X126980000Y-73935000D01*
X161170000Y-124320000D02*
X161170000Y-127140000D01*
X161170000Y-127140000D02*
X166490000Y-127140000D01*
X166490000Y-127140000D02*
X166490000Y-124320000D01*
X166490000Y-124320000D02*
X161170000Y-124320000D01*
X160030000Y-125730000D02*
X161170000Y-125730000D01*
X167630000Y-125730000D02*
X166490000Y-125730000D01*
X162010000Y-124320000D02*
X162010000Y-127140000D01*
X163950000Y-81420000D02*
X163950000Y-78600000D01*
X163950000Y-78600000D02*
X158630000Y-78600000D01*
X158630000Y-78600000D02*
X158630000Y-81420000D01*
X158630000Y-81420000D02*
X163950000Y-81420000D01*
X165090000Y-80010000D02*
X163950000Y-80010000D01*
X157490000Y-80010000D02*
X158630000Y-80010000D01*
X163110000Y-81420000D02*
X163110000Y-78600000D01*
X158630000Y-73520000D02*
X158630000Y-76340000D01*
X158630000Y-76340000D02*
X163950000Y-76340000D01*
X163950000Y-76340000D02*
X163950000Y-73520000D01*
X163950000Y-73520000D02*
X158630000Y-73520000D01*
X157490000Y-74930000D02*
X158630000Y-74930000D01*
X165090000Y-74930000D02*
X163950000Y-74930000D01*
X159470000Y-73520000D02*
X159470000Y-76340000D01*
X118620000Y-136060000D02*
X148620000Y-136060000D01*
X148620000Y-125560000D02*
X118620000Y-125560000D01*
X148620000Y-136060000D02*
G75*
G03X148620000Y-125560000I0J5250000D01*
G01*
X118620000Y-125560000D02*
G75*
G03X118620000Y-136060000I0J-5250000D01*
G01*
X199560000Y-96010000D02*
X199560000Y-66010000D01*
X189060000Y-66010000D02*
X189060000Y-96010000D01*
X199560000Y-66010000D02*
G75*
G03X189060000Y-66010000I-5250000J0D01*
G01*
X189060000Y-96010000D02*
G75*
G03X199560000Y-96010000I5250000J0D01*
G01*
X73840000Y-86110000D02*
X73840000Y-94230000D01*
X73840000Y-94230000D02*
X103960000Y-94230000D01*
X103960000Y-94230000D02*
X103960000Y-86110000D01*
X103960000Y-86110000D02*
X73840000Y-86110000D01*
X72700000Y-90170000D02*
X73840000Y-90170000D01*
X105100000Y-90170000D02*
X103960000Y-90170000D01*
X175950000Y-113770000D02*
X175950000Y-117370000D01*
X176677205Y-113245816D02*
G75*
G03X175950000Y-113770000I1122795J-2324184D01*
G01*
X178898807Y-113213600D02*
G75*
G02X180400000Y-115570000I-1098807J-2356400D01*
G01*
X178898807Y-117926400D02*
G75*
G03X180400000Y-115570000I-1098807J2356400D01*
G01*
X176677205Y-117894184D02*
G75*
G02X175950000Y-117370000I1122795J2324184D01*
G01*
X114757084Y-85054902D02*
X115648039Y-85945856D01*
X115648039Y-85945856D02*
X116425856Y-85168039D01*
X116425856Y-85168039D02*
X115534902Y-84277084D01*
X115534674Y-84277371D02*
G75*
G03X114757084Y-85054902I-3774674J2997371D01*
G01*
X140660000Y-72810000D02*
X148900000Y-72810000D01*
X140660000Y-76300000D02*
X148900000Y-76300000D01*
X140660000Y-72810000D02*
X140660000Y-76300000D01*
X148900000Y-72810000D02*
X148900000Y-76300000D01*
X143180000Y-72810000D02*
X143180000Y-73880000D01*
X143180000Y-75980000D02*
X143180000Y-76300000D01*
X146381000Y-72810000D02*
X146381000Y-74390000D01*
X146381000Y-75470000D02*
X146381000Y-76300000D01*
X129580000Y-67390000D02*
X119340000Y-67390000D01*
X129580000Y-62749000D02*
X119340000Y-62749000D01*
X129580000Y-67390000D02*
X129580000Y-62749000D01*
X119340000Y-67390000D02*
X119340000Y-62749000D01*
X129580000Y-65880000D02*
X119340000Y-65880000D01*
X126310000Y-67390000D02*
X126310000Y-65880000D01*
X122609000Y-67390000D02*
X122609000Y-65880000D01*
X130290000Y-98180000D02*
X130290000Y-94860000D01*
X130290000Y-94860000D02*
X121170000Y-94860000D01*
X121170000Y-94860000D02*
X121170000Y-98180000D01*
X121170000Y-98180000D02*
X130290000Y-98180000D01*
X134910000Y-96520000D02*
X130290000Y-96520000D01*
X116550000Y-96520000D02*
X121170000Y-96520000D01*
X122520000Y-88860000D02*
X122520000Y-91480000D01*
X122520000Y-91480000D02*
X128940000Y-91480000D01*
X128940000Y-91480000D02*
X128940000Y-88860000D01*
X128940000Y-88860000D02*
X122520000Y-88860000D01*
X119090000Y-90170000D02*
X122520000Y-90170000D01*
X132370000Y-90170000D02*
X128940000Y-90170000D01*
X160620000Y-107910000D02*
X160620000Y-110530000D01*
X160620000Y-110530000D02*
X167040000Y-110530000D01*
X167040000Y-110530000D02*
X167040000Y-107910000D01*
X167040000Y-107910000D02*
X160620000Y-107910000D01*
X157190000Y-109220000D02*
X160620000Y-109220000D01*
X170470000Y-109220000D02*
X167040000Y-109220000D01*
X167040000Y-115610000D02*
X167040000Y-112990000D01*
X167040000Y-112990000D02*
X160620000Y-112990000D01*
X160620000Y-112990000D02*
X160620000Y-115610000D01*
X160620000Y-115610000D02*
X167040000Y-115610000D01*
X170470000Y-114300000D02*
X167040000Y-114300000D01*
X157190000Y-114300000D02*
X160620000Y-114300000D01*
X128940000Y-80050000D02*
X128940000Y-77430000D01*
X128940000Y-77430000D02*
X122520000Y-77430000D01*
X122520000Y-77430000D02*
X122520000Y-80050000D01*
X122520000Y-80050000D02*
X128940000Y-80050000D01*
X132370000Y-78740000D02*
X128940000Y-78740000D01*
X119090000Y-78740000D02*
X122520000Y-78740000D01*
X167040000Y-120690000D02*
X167040000Y-118070000D01*
X167040000Y-118070000D02*
X160620000Y-118070000D01*
X160620000Y-118070000D02*
X160620000Y-120690000D01*
X160620000Y-120690000D02*
X167040000Y-120690000D01*
X170470000Y-119380000D02*
X167040000Y-119380000D01*
X157190000Y-119380000D02*
X160620000Y-119380000D01*
X78840000Y-76750000D02*
X78840000Y-83270000D01*
X78840000Y-83270000D02*
X98960000Y-83270000D01*
X98960000Y-83270000D02*
X98960000Y-76750000D01*
X98960000Y-76750000D02*
X78840000Y-76750000D01*
X75040000Y-80010000D02*
X78840000Y-80010000D01*
X102760000Y-80010000D02*
X98960000Y-80010000D01*
X179670000Y-107910000D02*
X179670000Y-110530000D01*
X179670000Y-110530000D02*
X186090000Y-110530000D01*
X186090000Y-110530000D02*
X186090000Y-107910000D01*
X186090000Y-107910000D02*
X179670000Y-107910000D01*
X176240000Y-109220000D02*
X179670000Y-109220000D01*
X189520000Y-109220000D02*
X186090000Y-109220000D01*
X92110000Y-72430000D02*
X92110000Y-69810000D01*
X92110000Y-69810000D02*
X85690000Y-69810000D01*
X85690000Y-69810000D02*
X85690000Y-72430000D01*
X85690000Y-72430000D02*
X92110000Y-72430000D01*
X95540000Y-71120000D02*
X92110000Y-71120000D01*
X82260000Y-71120000D02*
X85690000Y-71120000D01*
X127670000Y-59730000D02*
X127670000Y-57110000D01*
X127670000Y-57110000D02*
X121250000Y-57110000D01*
X121250000Y-57110000D02*
X121250000Y-59730000D01*
X121250000Y-59730000D02*
X127670000Y-59730000D01*
X131100000Y-58420000D02*
X127670000Y-58420000D01*
X117820000Y-58420000D02*
X121250000Y-58420000D01*
X147990000Y-81320000D02*
X147990000Y-78700000D01*
X147990000Y-78700000D02*
X141570000Y-78700000D01*
X141570000Y-78700000D02*
X141570000Y-81320000D01*
X141570000Y-81320000D02*
X147990000Y-81320000D01*
X151420000Y-80010000D02*
X147990000Y-80010000D01*
X138140000Y-80010000D02*
X141570000Y-80010000D01*
X152590000Y-67330000D02*
X152590000Y-62210000D01*
X152590000Y-62210000D02*
X136970000Y-62210000D01*
X136970000Y-62210000D02*
X136970000Y-67330000D01*
X136970000Y-67330000D02*
X152590000Y-67330000D01*
X156100000Y-64770000D02*
X152590000Y-64770000D01*
X133460000Y-64770000D02*
X136970000Y-64770000D01*
X194500000Y-128290000D02*
X194500000Y-123170000D01*
X194500000Y-123170000D02*
X178880000Y-123170000D01*
X178880000Y-123170000D02*
X178880000Y-128290000D01*
X178880000Y-128290000D02*
X194500000Y-128290000D01*
X198010000Y-125730000D02*
X194500000Y-125730000D01*
X175370000Y-125730000D02*
X178880000Y-125730000D01*
X178880000Y-132060000D02*
X178880000Y-137180000D01*
X178880000Y-137180000D02*
X194500000Y-137180000D01*
X194500000Y-137180000D02*
X194500000Y-132060000D01*
X194500000Y-132060000D02*
X178880000Y-132060000D01*
X175370000Y-134620000D02*
X178880000Y-134620000D01*
X198010000Y-134620000D02*
X194500000Y-134620000D01*
X162180000Y-91590000D02*
G75*
G03X162180000Y-91590000I-8510000J0D01*
G01*
X155670000Y-91590000D02*
G75*
G03X155670000Y-91590000I-2000000J0D01*
G01*
X145160000Y-102450000D02*
X145160000Y-91590000D01*
X145160000Y-102450000D02*
X162180000Y-102450000D01*
X162180000Y-102450000D02*
X162180000Y-91590000D01*
D12*
X145843334Y-118447143D02*
X145795715Y-118494762D01*
X145652858Y-118542381D01*
X145557620Y-118542381D01*
X145414762Y-118494762D01*
X145319524Y-118399524D01*
X145271905Y-118304286D01*
X145224286Y-118113810D01*
X145224286Y-117970952D01*
X145271905Y-117780476D01*
X145319524Y-117685238D01*
X145414762Y-117590000D01*
X145557620Y-117542381D01*
X145652858Y-117542381D01*
X145795715Y-117590000D01*
X145843334Y-117637619D01*
X146795715Y-118542381D02*
X146224286Y-118542381D01*
X146510000Y-118542381D02*
X146510000Y-117542381D01*
X146414762Y-117685238D01*
X146319524Y-117780476D01*
X146224286Y-117828095D01*
X92543334Y-95607143D02*
X92495715Y-95654762D01*
X92352858Y-95702381D01*
X92257620Y-95702381D01*
X92114762Y-95654762D01*
X92019524Y-95559524D01*
X91971905Y-95464286D01*
X91924286Y-95273810D01*
X91924286Y-95130952D01*
X91971905Y-94940476D01*
X92019524Y-94845238D01*
X92114762Y-94750000D01*
X92257620Y-94702381D01*
X92352858Y-94702381D01*
X92495715Y-94750000D01*
X92543334Y-94797619D01*
X92924286Y-94797619D02*
X92971905Y-94750000D01*
X93067143Y-94702381D01*
X93305239Y-94702381D01*
X93400477Y-94750000D01*
X93448096Y-94797619D01*
X93495715Y-94892857D01*
X93495715Y-94988095D01*
X93448096Y-95130952D01*
X92876667Y-95702381D01*
X93495715Y-95702381D01*
X145843334Y-112117143D02*
X145795715Y-112164762D01*
X145652858Y-112212381D01*
X145557620Y-112212381D01*
X145414762Y-112164762D01*
X145319524Y-112069524D01*
X145271905Y-111974286D01*
X145224286Y-111783810D01*
X145224286Y-111640952D01*
X145271905Y-111450476D01*
X145319524Y-111355238D01*
X145414762Y-111260000D01*
X145557620Y-111212381D01*
X145652858Y-111212381D01*
X145795715Y-111260000D01*
X145843334Y-111307619D01*
X146176667Y-111212381D02*
X146795715Y-111212381D01*
X146462381Y-111593333D01*
X146605239Y-111593333D01*
X146700477Y-111640952D01*
X146748096Y-111688571D01*
X146795715Y-111783810D01*
X146795715Y-112021905D01*
X146748096Y-112117143D01*
X146700477Y-112164762D01*
X146605239Y-112212381D01*
X146319524Y-112212381D01*
X146224286Y-112164762D01*
X146176667Y-112117143D01*
X115403334Y-72707143D02*
X115355715Y-72754762D01*
X115212858Y-72802381D01*
X115117620Y-72802381D01*
X114974762Y-72754762D01*
X114879524Y-72659524D01*
X114831905Y-72564286D01*
X114784286Y-72373810D01*
X114784286Y-72230952D01*
X114831905Y-72040476D01*
X114879524Y-71945238D01*
X114974762Y-71850000D01*
X115117620Y-71802381D01*
X115212858Y-71802381D01*
X115355715Y-71850000D01*
X115403334Y-71897619D01*
X116260477Y-72135714D02*
X116260477Y-72802381D01*
X116022381Y-71754762D02*
X115784286Y-72469048D01*
X116403334Y-72469048D01*
X166263334Y-90587143D02*
X166215715Y-90634762D01*
X166072858Y-90682381D01*
X165977620Y-90682381D01*
X165834762Y-90634762D01*
X165739524Y-90539524D01*
X165691905Y-90444286D01*
X165644286Y-90253810D01*
X165644286Y-90110952D01*
X165691905Y-89920476D01*
X165739524Y-89825238D01*
X165834762Y-89730000D01*
X165977620Y-89682381D01*
X166072858Y-89682381D01*
X166215715Y-89730000D01*
X166263334Y-89777619D01*
X167168096Y-89682381D02*
X166691905Y-89682381D01*
X166644286Y-90158571D01*
X166691905Y-90110952D01*
X166787143Y-90063333D01*
X167025239Y-90063333D01*
X167120477Y-90110952D01*
X167168096Y-90158571D01*
X167215715Y-90253810D01*
X167215715Y-90491905D01*
X167168096Y-90587143D01*
X167120477Y-90634762D01*
X167025239Y-90682381D01*
X166787143Y-90682381D01*
X166691905Y-90634762D01*
X166644286Y-90587143D01*
X137311905Y-123132381D02*
X137311905Y-122132381D01*
X137550000Y-122132381D01*
X137692858Y-122180000D01*
X137788096Y-122275238D01*
X137835715Y-122370476D01*
X137883334Y-122560952D01*
X137883334Y-122703810D01*
X137835715Y-122894286D01*
X137788096Y-122989524D01*
X137692858Y-123084762D01*
X137550000Y-123132381D01*
X137311905Y-123132381D01*
X138835715Y-123132381D02*
X138264286Y-123132381D01*
X138550000Y-123132381D02*
X138550000Y-122132381D01*
X138454762Y-122275238D01*
X138359524Y-122370476D01*
X138264286Y-122418095D01*
X124991905Y-100462381D02*
X124991905Y-99462381D01*
X125230000Y-99462381D01*
X125372858Y-99510000D01*
X125468096Y-99605238D01*
X125515715Y-99700476D01*
X125563334Y-99890952D01*
X125563334Y-100033810D01*
X125515715Y-100224286D01*
X125468096Y-100319524D01*
X125372858Y-100414762D01*
X125230000Y-100462381D01*
X124991905Y-100462381D01*
X125944286Y-99557619D02*
X125991905Y-99510000D01*
X126087143Y-99462381D01*
X126325239Y-99462381D01*
X126420477Y-99510000D01*
X126468096Y-99557619D01*
X126515715Y-99652857D01*
X126515715Y-99748095D01*
X126468096Y-99890952D01*
X125896667Y-100462381D01*
X126515715Y-100462381D01*
X124991905Y-106812381D02*
X124991905Y-105812381D01*
X125230000Y-105812381D01*
X125372858Y-105860000D01*
X125468096Y-105955238D01*
X125515715Y-106050476D01*
X125563334Y-106240952D01*
X125563334Y-106383810D01*
X125515715Y-106574286D01*
X125468096Y-106669524D01*
X125372858Y-106764762D01*
X125230000Y-106812381D01*
X124991905Y-106812381D01*
X125896667Y-105812381D02*
X126515715Y-105812381D01*
X126182381Y-106193333D01*
X126325239Y-106193333D01*
X126420477Y-106240952D01*
X126468096Y-106288571D01*
X126515715Y-106383810D01*
X126515715Y-106621905D01*
X126468096Y-106717143D01*
X126420477Y-106764762D01*
X126325239Y-106812381D01*
X126039524Y-106812381D01*
X125944286Y-106764762D01*
X125896667Y-106717143D01*
X141501905Y-104592381D02*
X141501905Y-103592381D01*
X141740000Y-103592381D01*
X141882858Y-103640000D01*
X141978096Y-103735238D01*
X142025715Y-103830476D01*
X142073334Y-104020952D01*
X142073334Y-104163810D01*
X142025715Y-104354286D01*
X141978096Y-104449524D01*
X141882858Y-104544762D01*
X141740000Y-104592381D01*
X141501905Y-104592381D01*
X142930477Y-103925714D02*
X142930477Y-104592381D01*
X142692381Y-103544762D02*
X142454286Y-104259048D01*
X143073334Y-104259048D01*
X124991905Y-81862381D02*
X124991905Y-80862381D01*
X125230000Y-80862381D01*
X125372858Y-80910000D01*
X125468096Y-81005238D01*
X125515715Y-81100476D01*
X125563334Y-81290952D01*
X125563334Y-81433810D01*
X125515715Y-81624286D01*
X125468096Y-81719524D01*
X125372858Y-81814762D01*
X125230000Y-81862381D01*
X124991905Y-81862381D01*
X126468096Y-80862381D02*
X125991905Y-80862381D01*
X125944286Y-81338571D01*
X125991905Y-81290952D01*
X126087143Y-81243333D01*
X126325239Y-81243333D01*
X126420477Y-81290952D01*
X126468096Y-81338571D01*
X126515715Y-81433810D01*
X126515715Y-81671905D01*
X126468096Y-81767143D01*
X126420477Y-81814762D01*
X126325239Y-81862381D01*
X126087143Y-81862381D01*
X125991905Y-81814762D01*
X125944286Y-81767143D01*
X128801905Y-68882381D02*
X128801905Y-67882381D01*
X129040000Y-67882381D01*
X129182858Y-67930000D01*
X129278096Y-68025238D01*
X129325715Y-68120476D01*
X129373334Y-68310952D01*
X129373334Y-68453810D01*
X129325715Y-68644286D01*
X129278096Y-68739524D01*
X129182858Y-68834762D01*
X129040000Y-68882381D01*
X128801905Y-68882381D01*
X130230477Y-67882381D02*
X130040000Y-67882381D01*
X129944762Y-67930000D01*
X129897143Y-67977619D01*
X129801905Y-68120476D01*
X129754286Y-68310952D01*
X129754286Y-68691905D01*
X129801905Y-68787143D01*
X129849524Y-68834762D01*
X129944762Y-68882381D01*
X130135239Y-68882381D01*
X130230477Y-68834762D01*
X130278096Y-68787143D01*
X130325715Y-68691905D01*
X130325715Y-68453810D01*
X130278096Y-68358571D01*
X130230477Y-68310952D01*
X130135239Y-68263333D01*
X129944762Y-68263333D01*
X129849524Y-68310952D01*
X129801905Y-68358571D01*
X129754286Y-68453810D01*
X163091905Y-123772381D02*
X163091905Y-122772381D01*
X163330000Y-122772381D01*
X163472858Y-122820000D01*
X163568096Y-122915238D01*
X163615715Y-123010476D01*
X163663334Y-123200952D01*
X163663334Y-123343810D01*
X163615715Y-123534286D01*
X163568096Y-123629524D01*
X163472858Y-123724762D01*
X163330000Y-123772381D01*
X163091905Y-123772381D01*
X163996667Y-122772381D02*
X164663334Y-122772381D01*
X164234762Y-123772381D01*
X160551905Y-77922381D02*
X160551905Y-76922381D01*
X160790000Y-76922381D01*
X160932858Y-76970000D01*
X161028096Y-77065238D01*
X161075715Y-77160476D01*
X161123334Y-77350952D01*
X161123334Y-77493810D01*
X161075715Y-77684286D01*
X161028096Y-77779524D01*
X160932858Y-77874762D01*
X160790000Y-77922381D01*
X160551905Y-77922381D01*
X161694762Y-77350952D02*
X161599524Y-77303333D01*
X161551905Y-77255714D01*
X161504286Y-77160476D01*
X161504286Y-77112857D01*
X161551905Y-77017619D01*
X161599524Y-76970000D01*
X161694762Y-76922381D01*
X161885239Y-76922381D01*
X161980477Y-76970000D01*
X162028096Y-77017619D01*
X162075715Y-77112857D01*
X162075715Y-77160476D01*
X162028096Y-77255714D01*
X161980477Y-77303333D01*
X161885239Y-77350952D01*
X161694762Y-77350952D01*
X161599524Y-77398571D01*
X161551905Y-77446190D01*
X161504286Y-77541429D01*
X161504286Y-77731905D01*
X161551905Y-77827143D01*
X161599524Y-77874762D01*
X161694762Y-77922381D01*
X161885239Y-77922381D01*
X161980477Y-77874762D01*
X162028096Y-77827143D01*
X162075715Y-77731905D01*
X162075715Y-77541429D01*
X162028096Y-77446190D01*
X161980477Y-77398571D01*
X161885239Y-77350952D01*
X160551905Y-72842381D02*
X160551905Y-71842381D01*
X160790000Y-71842381D01*
X160932858Y-71890000D01*
X161028096Y-71985238D01*
X161075715Y-72080476D01*
X161123334Y-72270952D01*
X161123334Y-72413810D01*
X161075715Y-72604286D01*
X161028096Y-72699524D01*
X160932858Y-72794762D01*
X160790000Y-72842381D01*
X160551905Y-72842381D01*
X161599524Y-72842381D02*
X161790000Y-72842381D01*
X161885239Y-72794762D01*
X161932858Y-72747143D01*
X162028096Y-72604286D01*
X162075715Y-72413810D01*
X162075715Y-72032857D01*
X162028096Y-71937619D01*
X161980477Y-71890000D01*
X161885239Y-71842381D01*
X161694762Y-71842381D01*
X161599524Y-71890000D01*
X161551905Y-71937619D01*
X161504286Y-72032857D01*
X161504286Y-72270952D01*
X161551905Y-72366190D01*
X161599524Y-72413810D01*
X161694762Y-72461429D01*
X161885239Y-72461429D01*
X161980477Y-72413810D01*
X162028096Y-72366190D01*
X162075715Y-72270952D01*
X133271667Y-124022381D02*
X133271667Y-124736667D01*
X133224047Y-124879524D01*
X133128809Y-124974762D01*
X132985952Y-125022381D01*
X132890714Y-125022381D01*
X134271667Y-125022381D02*
X133700238Y-125022381D01*
X133985952Y-125022381D02*
X133985952Y-124022381D01*
X133890714Y-124165238D01*
X133795476Y-124260476D01*
X133700238Y-124308095D01*
X187736667Y-80477381D02*
X187736667Y-81191667D01*
X187689047Y-81334524D01*
X187593809Y-81429762D01*
X187450952Y-81477381D01*
X187355714Y-81477381D01*
X188165238Y-80572619D02*
X188212857Y-80525000D01*
X188308095Y-80477381D01*
X188546191Y-80477381D01*
X188641429Y-80525000D01*
X188689048Y-80572619D01*
X188736667Y-80667857D01*
X188736667Y-80763095D01*
X188689048Y-80905952D01*
X188117619Y-81477381D01*
X188736667Y-81477381D01*
X88733334Y-85562381D02*
X88257143Y-85562381D01*
X88257143Y-84562381D01*
X89590477Y-85562381D02*
X89019048Y-85562381D01*
X89304762Y-85562381D02*
X89304762Y-84562381D01*
X89209524Y-84705238D01*
X89114286Y-84800476D01*
X89019048Y-84848095D01*
X173894762Y-116117619D02*
X173799524Y-116070000D01*
X173704286Y-115974762D01*
X173561429Y-115831905D01*
X173466190Y-115784286D01*
X173370952Y-115784286D01*
X173418571Y-116022381D02*
X173323333Y-115974762D01*
X173228095Y-115879524D01*
X173180476Y-115689048D01*
X173180476Y-115355714D01*
X173228095Y-115165238D01*
X173323333Y-115070000D01*
X173418571Y-115022381D01*
X173609048Y-115022381D01*
X173704286Y-115070000D01*
X173799524Y-115165238D01*
X173847143Y-115355714D01*
X173847143Y-115689048D01*
X173799524Y-115879524D01*
X173704286Y-115974762D01*
X173609048Y-116022381D01*
X173418571Y-116022381D01*
X174799524Y-116022381D02*
X174228095Y-116022381D01*
X174513809Y-116022381D02*
X174513809Y-115022381D01*
X174418571Y-115165238D01*
X174323333Y-115260476D01*
X174228095Y-115308095D01*
X111664762Y-75477619D02*
X111569524Y-75430000D01*
X111474286Y-75334762D01*
X111331429Y-75191905D01*
X111236190Y-75144286D01*
X111140952Y-75144286D01*
X111188571Y-75382381D02*
X111093333Y-75334762D01*
X110998095Y-75239524D01*
X110950476Y-75049048D01*
X110950476Y-74715714D01*
X110998095Y-74525238D01*
X111093333Y-74430000D01*
X111188571Y-74382381D01*
X111379048Y-74382381D01*
X111474286Y-74430000D01*
X111569524Y-74525238D01*
X111617143Y-74715714D01*
X111617143Y-75049048D01*
X111569524Y-75239524D01*
X111474286Y-75334762D01*
X111379048Y-75382381D01*
X111188571Y-75382381D01*
X111998095Y-74477619D02*
X112045714Y-74430000D01*
X112140952Y-74382381D01*
X112379048Y-74382381D01*
X112474286Y-74430000D01*
X112521905Y-74477619D01*
X112569524Y-74572857D01*
X112569524Y-74668095D01*
X112521905Y-74810952D01*
X111950476Y-75382381D01*
X112569524Y-75382381D01*
X144684762Y-72357619D02*
X144589524Y-72310000D01*
X144494286Y-72214762D01*
X144351429Y-72071905D01*
X144256190Y-72024286D01*
X144160952Y-72024286D01*
X144208571Y-72262381D02*
X144113333Y-72214762D01*
X144018095Y-72119524D01*
X143970476Y-71929048D01*
X143970476Y-71595714D01*
X144018095Y-71405238D01*
X144113333Y-71310000D01*
X144208571Y-71262381D01*
X144399048Y-71262381D01*
X144494286Y-71310000D01*
X144589524Y-71405238D01*
X144637143Y-71595714D01*
X144637143Y-71929048D01*
X144589524Y-72119524D01*
X144494286Y-72214762D01*
X144399048Y-72262381D01*
X144208571Y-72262381D01*
X144970476Y-71262381D02*
X145589524Y-71262381D01*
X145256190Y-71643333D01*
X145399048Y-71643333D01*
X145494286Y-71690952D01*
X145541905Y-71738571D01*
X145589524Y-71833810D01*
X145589524Y-72071905D01*
X145541905Y-72167143D01*
X145494286Y-72214762D01*
X145399048Y-72262381D01*
X145113333Y-72262381D01*
X145018095Y-72214762D01*
X144970476Y-72167143D01*
X124364762Y-61507619D02*
X124269524Y-61460000D01*
X124174286Y-61364762D01*
X124031429Y-61221905D01*
X123936190Y-61174286D01*
X123840952Y-61174286D01*
X123888571Y-61412381D02*
X123793333Y-61364762D01*
X123698095Y-61269524D01*
X123650476Y-61079048D01*
X123650476Y-60745714D01*
X123698095Y-60555238D01*
X123793333Y-60460000D01*
X123888571Y-60412381D01*
X124079048Y-60412381D01*
X124174286Y-60460000D01*
X124269524Y-60555238D01*
X124317143Y-60745714D01*
X124317143Y-61079048D01*
X124269524Y-61269524D01*
X124174286Y-61364762D01*
X124079048Y-61412381D01*
X123888571Y-61412381D01*
X125174286Y-60745714D02*
X125174286Y-61412381D01*
X124936190Y-60364762D02*
X124698095Y-61079048D01*
X125317143Y-61079048D01*
X125563334Y-94432381D02*
X125230000Y-93956190D01*
X124991905Y-94432381D02*
X124991905Y-93432381D01*
X125372858Y-93432381D01*
X125468096Y-93480000D01*
X125515715Y-93527619D01*
X125563334Y-93622857D01*
X125563334Y-93765714D01*
X125515715Y-93860952D01*
X125468096Y-93908571D01*
X125372858Y-93956190D01*
X124991905Y-93956190D01*
X126515715Y-94432381D02*
X125944286Y-94432381D01*
X126230000Y-94432381D02*
X126230000Y-93432381D01*
X126134762Y-93575238D01*
X126039524Y-93670476D01*
X125944286Y-93718095D01*
X125563334Y-88312381D02*
X125230000Y-87836190D01*
X124991905Y-88312381D02*
X124991905Y-87312381D01*
X125372858Y-87312381D01*
X125468096Y-87360000D01*
X125515715Y-87407619D01*
X125563334Y-87502857D01*
X125563334Y-87645714D01*
X125515715Y-87740952D01*
X125468096Y-87788571D01*
X125372858Y-87836190D01*
X124991905Y-87836190D01*
X125944286Y-87407619D02*
X125991905Y-87360000D01*
X126087143Y-87312381D01*
X126325239Y-87312381D01*
X126420477Y-87360000D01*
X126468096Y-87407619D01*
X126515715Y-87502857D01*
X126515715Y-87598095D01*
X126468096Y-87740952D01*
X125896667Y-88312381D01*
X126515715Y-88312381D01*
X163663334Y-107362381D02*
X163330000Y-106886190D01*
X163091905Y-107362381D02*
X163091905Y-106362381D01*
X163472858Y-106362381D01*
X163568096Y-106410000D01*
X163615715Y-106457619D01*
X163663334Y-106552857D01*
X163663334Y-106695714D01*
X163615715Y-106790952D01*
X163568096Y-106838571D01*
X163472858Y-106886190D01*
X163091905Y-106886190D01*
X163996667Y-106362381D02*
X164615715Y-106362381D01*
X164282381Y-106743333D01*
X164425239Y-106743333D01*
X164520477Y-106790952D01*
X164568096Y-106838571D01*
X164615715Y-106933810D01*
X164615715Y-107171905D01*
X164568096Y-107267143D01*
X164520477Y-107314762D01*
X164425239Y-107362381D01*
X164139524Y-107362381D01*
X164044286Y-107314762D01*
X163996667Y-107267143D01*
X163663334Y-112212381D02*
X163330000Y-111736190D01*
X163091905Y-112212381D02*
X163091905Y-111212381D01*
X163472858Y-111212381D01*
X163568096Y-111260000D01*
X163615715Y-111307619D01*
X163663334Y-111402857D01*
X163663334Y-111545714D01*
X163615715Y-111640952D01*
X163568096Y-111688571D01*
X163472858Y-111736190D01*
X163091905Y-111736190D01*
X164520477Y-111545714D02*
X164520477Y-112212381D01*
X164282381Y-111164762D02*
X164044286Y-111879048D01*
X164663334Y-111879048D01*
X125563334Y-76652381D02*
X125230000Y-76176190D01*
X124991905Y-76652381D02*
X124991905Y-75652381D01*
X125372858Y-75652381D01*
X125468096Y-75700000D01*
X125515715Y-75747619D01*
X125563334Y-75842857D01*
X125563334Y-75985714D01*
X125515715Y-76080952D01*
X125468096Y-76128571D01*
X125372858Y-76176190D01*
X124991905Y-76176190D01*
X126468096Y-75652381D02*
X125991905Y-75652381D01*
X125944286Y-76128571D01*
X125991905Y-76080952D01*
X126087143Y-76033333D01*
X126325239Y-76033333D01*
X126420477Y-76080952D01*
X126468096Y-76128571D01*
X126515715Y-76223810D01*
X126515715Y-76461905D01*
X126468096Y-76557143D01*
X126420477Y-76604762D01*
X126325239Y-76652381D01*
X126087143Y-76652381D01*
X125991905Y-76604762D01*
X125944286Y-76557143D01*
X163663334Y-117292381D02*
X163330000Y-116816190D01*
X163091905Y-117292381D02*
X163091905Y-116292381D01*
X163472858Y-116292381D01*
X163568096Y-116340000D01*
X163615715Y-116387619D01*
X163663334Y-116482857D01*
X163663334Y-116625714D01*
X163615715Y-116720952D01*
X163568096Y-116768571D01*
X163472858Y-116816190D01*
X163091905Y-116816190D01*
X164520477Y-116292381D02*
X164330000Y-116292381D01*
X164234762Y-116340000D01*
X164187143Y-116387619D01*
X164091905Y-116530476D01*
X164044286Y-116720952D01*
X164044286Y-117101905D01*
X164091905Y-117197143D01*
X164139524Y-117244762D01*
X164234762Y-117292381D01*
X164425239Y-117292381D01*
X164520477Y-117244762D01*
X164568096Y-117197143D01*
X164615715Y-117101905D01*
X164615715Y-116863810D01*
X164568096Y-116768571D01*
X164520477Y-116720952D01*
X164425239Y-116673333D01*
X164234762Y-116673333D01*
X164139524Y-116720952D01*
X164091905Y-116768571D01*
X164044286Y-116863810D01*
X88733334Y-76202381D02*
X88400000Y-75726190D01*
X88161905Y-76202381D02*
X88161905Y-75202381D01*
X88542858Y-75202381D01*
X88638096Y-75250000D01*
X88685715Y-75297619D01*
X88733334Y-75392857D01*
X88733334Y-75535714D01*
X88685715Y-75630952D01*
X88638096Y-75678571D01*
X88542858Y-75726190D01*
X88161905Y-75726190D01*
X89066667Y-75202381D02*
X89733334Y-75202381D01*
X89304762Y-76202381D01*
X182713334Y-107362381D02*
X182380000Y-106886190D01*
X182141905Y-107362381D02*
X182141905Y-106362381D01*
X182522858Y-106362381D01*
X182618096Y-106410000D01*
X182665715Y-106457619D01*
X182713334Y-106552857D01*
X182713334Y-106695714D01*
X182665715Y-106790952D01*
X182618096Y-106838571D01*
X182522858Y-106886190D01*
X182141905Y-106886190D01*
X183284762Y-106790952D02*
X183189524Y-106743333D01*
X183141905Y-106695714D01*
X183094286Y-106600476D01*
X183094286Y-106552857D01*
X183141905Y-106457619D01*
X183189524Y-106410000D01*
X183284762Y-106362381D01*
X183475239Y-106362381D01*
X183570477Y-106410000D01*
X183618096Y-106457619D01*
X183665715Y-106552857D01*
X183665715Y-106600476D01*
X183618096Y-106695714D01*
X183570477Y-106743333D01*
X183475239Y-106790952D01*
X183284762Y-106790952D01*
X183189524Y-106838571D01*
X183141905Y-106886190D01*
X183094286Y-106981429D01*
X183094286Y-107171905D01*
X183141905Y-107267143D01*
X183189524Y-107314762D01*
X183284762Y-107362381D01*
X183475239Y-107362381D01*
X183570477Y-107314762D01*
X183618096Y-107267143D01*
X183665715Y-107171905D01*
X183665715Y-106981429D01*
X183618096Y-106886190D01*
X183570477Y-106838571D01*
X183475239Y-106790952D01*
X88733334Y-69032381D02*
X88400000Y-68556190D01*
X88161905Y-69032381D02*
X88161905Y-68032381D01*
X88542858Y-68032381D01*
X88638096Y-68080000D01*
X88685715Y-68127619D01*
X88733334Y-68222857D01*
X88733334Y-68365714D01*
X88685715Y-68460952D01*
X88638096Y-68508571D01*
X88542858Y-68556190D01*
X88161905Y-68556190D01*
X89209524Y-69032381D02*
X89400000Y-69032381D01*
X89495239Y-68984762D01*
X89542858Y-68937143D01*
X89638096Y-68794286D01*
X89685715Y-68603810D01*
X89685715Y-68222857D01*
X89638096Y-68127619D01*
X89590477Y-68080000D01*
X89495239Y-68032381D01*
X89304762Y-68032381D01*
X89209524Y-68080000D01*
X89161905Y-68127619D01*
X89114286Y-68222857D01*
X89114286Y-68460952D01*
X89161905Y-68556190D01*
X89209524Y-68603810D01*
X89304762Y-68651429D01*
X89495239Y-68651429D01*
X89590477Y-68603810D01*
X89638096Y-68556190D01*
X89685715Y-68460952D01*
X123817143Y-56332381D02*
X123483809Y-55856190D01*
X123245714Y-56332381D02*
X123245714Y-55332381D01*
X123626667Y-55332381D01*
X123721905Y-55380000D01*
X123769524Y-55427619D01*
X123817143Y-55522857D01*
X123817143Y-55665714D01*
X123769524Y-55760952D01*
X123721905Y-55808571D01*
X123626667Y-55856190D01*
X123245714Y-55856190D01*
X124769524Y-56332381D02*
X124198095Y-56332381D01*
X124483809Y-56332381D02*
X124483809Y-55332381D01*
X124388571Y-55475238D01*
X124293333Y-55570476D01*
X124198095Y-55618095D01*
X125388571Y-55332381D02*
X125483810Y-55332381D01*
X125579048Y-55380000D01*
X125626667Y-55427619D01*
X125674286Y-55522857D01*
X125721905Y-55713333D01*
X125721905Y-55951429D01*
X125674286Y-56141905D01*
X125626667Y-56237143D01*
X125579048Y-56284762D01*
X125483810Y-56332381D01*
X125388571Y-56332381D01*
X125293333Y-56284762D01*
X125245714Y-56237143D01*
X125198095Y-56141905D01*
X125150476Y-55951429D01*
X125150476Y-55713333D01*
X125198095Y-55522857D01*
X125245714Y-55427619D01*
X125293333Y-55380000D01*
X125388571Y-55332381D01*
X144137143Y-77922381D02*
X143803809Y-77446190D01*
X143565714Y-77922381D02*
X143565714Y-76922381D01*
X143946667Y-76922381D01*
X144041905Y-76970000D01*
X144089524Y-77017619D01*
X144137143Y-77112857D01*
X144137143Y-77255714D01*
X144089524Y-77350952D01*
X144041905Y-77398571D01*
X143946667Y-77446190D01*
X143565714Y-77446190D01*
X145089524Y-77922381D02*
X144518095Y-77922381D01*
X144803809Y-77922381D02*
X144803809Y-76922381D01*
X144708571Y-77065238D01*
X144613333Y-77160476D01*
X144518095Y-77208095D01*
X146041905Y-77922381D02*
X145470476Y-77922381D01*
X145756190Y-77922381D02*
X145756190Y-76922381D01*
X145660952Y-77065238D01*
X145565714Y-77160476D01*
X145470476Y-77208095D01*
X144137143Y-68782381D02*
X143803809Y-68306190D01*
X143565714Y-68782381D02*
X143565714Y-67782381D01*
X143946667Y-67782381D01*
X144041905Y-67830000D01*
X144089524Y-67877619D01*
X144137143Y-67972857D01*
X144137143Y-68115714D01*
X144089524Y-68210952D01*
X144041905Y-68258571D01*
X143946667Y-68306190D01*
X143565714Y-68306190D01*
X145089524Y-68782381D02*
X144518095Y-68782381D01*
X144803809Y-68782381D02*
X144803809Y-67782381D01*
X144708571Y-67925238D01*
X144613333Y-68020476D01*
X144518095Y-68068095D01*
X145470476Y-67877619D02*
X145518095Y-67830000D01*
X145613333Y-67782381D01*
X145851429Y-67782381D01*
X145946667Y-67830000D01*
X145994286Y-67877619D01*
X146041905Y-67972857D01*
X146041905Y-68068095D01*
X145994286Y-68210952D01*
X145422857Y-68782381D01*
X146041905Y-68782381D01*
X186047143Y-122372381D02*
X185713809Y-121896190D01*
X185475714Y-122372381D02*
X185475714Y-121372381D01*
X185856667Y-121372381D01*
X185951905Y-121420000D01*
X185999524Y-121467619D01*
X186047143Y-121562857D01*
X186047143Y-121705714D01*
X185999524Y-121800952D01*
X185951905Y-121848571D01*
X185856667Y-121896190D01*
X185475714Y-121896190D01*
X186999524Y-122372381D02*
X186428095Y-122372381D01*
X186713809Y-122372381D02*
X186713809Y-121372381D01*
X186618571Y-121515238D01*
X186523333Y-121610476D01*
X186428095Y-121658095D01*
X187332857Y-121372381D02*
X187951905Y-121372381D01*
X187618571Y-121753333D01*
X187761429Y-121753333D01*
X187856667Y-121800952D01*
X187904286Y-121848571D01*
X187951905Y-121943810D01*
X187951905Y-122181905D01*
X187904286Y-122277143D01*
X187856667Y-122324762D01*
X187761429Y-122372381D01*
X187475714Y-122372381D01*
X187380476Y-122324762D01*
X187332857Y-122277143D01*
X186047143Y-131512381D02*
X185713809Y-131036190D01*
X185475714Y-131512381D02*
X185475714Y-130512381D01*
X185856667Y-130512381D01*
X185951905Y-130560000D01*
X185999524Y-130607619D01*
X186047143Y-130702857D01*
X186047143Y-130845714D01*
X185999524Y-130940952D01*
X185951905Y-130988571D01*
X185856667Y-131036190D01*
X185475714Y-131036190D01*
X186999524Y-131512381D02*
X186428095Y-131512381D01*
X186713809Y-131512381D02*
X186713809Y-130512381D01*
X186618571Y-130655238D01*
X186523333Y-130750476D01*
X186428095Y-130798095D01*
X187856667Y-130845714D02*
X187856667Y-131512381D01*
X187618571Y-130464762D02*
X187380476Y-131179048D01*
X187999524Y-131179048D01*
X142914762Y-94677381D02*
X142581428Y-94201190D01*
X142343333Y-94677381D02*
X142343333Y-93677381D01*
X142724286Y-93677381D01*
X142819524Y-93725000D01*
X142867143Y-93772619D01*
X142914762Y-93867857D01*
X142914762Y-94010714D01*
X142867143Y-94105952D01*
X142819524Y-94153571D01*
X142724286Y-94201190D01*
X142343333Y-94201190D01*
X143200476Y-93677381D02*
X143533809Y-94677381D01*
X143867143Y-93677381D01*
X144724286Y-94677381D02*
X144152857Y-94677381D01*
X144438571Y-94677381D02*
X144438571Y-93677381D01*
X144343333Y-93820238D01*
X144248095Y-93915476D01*
X144152857Y-93963095D01*
M02*
