G04 #@! TF.FileFunction,Drawing*
%FSLAX46Y46*%
G04 Gerber Fmt 4.6, Leading zero omitted, Abs format (unit mm)*
G04 Created by KiCad (PCBNEW 4.0.7) date 06/09/18 23:49:41*
%MOMM*%
%LPD*%
G01*
G04 APERTURE LIST*
%ADD10C,0.100000*%
%ADD11C,0.300000*%
G04 APERTURE END LIST*
D10*
D11*
X145502323Y-60368571D02*
X144788037Y-60368571D01*
X144975537Y-58868571D01*
X146645180Y-60368571D02*
X146743394Y-59582857D01*
X146689822Y-59440000D01*
X146555894Y-59368571D01*
X146270180Y-59368571D01*
X146118394Y-59440000D01*
X146654108Y-60297143D02*
X146502323Y-60368571D01*
X146145180Y-60368571D01*
X146011251Y-60297143D01*
X145957679Y-60154286D01*
X145975536Y-60011429D01*
X146064823Y-59868571D01*
X146216608Y-59797143D01*
X146573751Y-59797143D01*
X146725537Y-59725714D01*
X147359466Y-60368571D02*
X147546966Y-58868571D01*
X147475537Y-59440000D02*
X147627323Y-59368571D01*
X147913037Y-59368571D01*
X148046965Y-59440000D01*
X148109465Y-59511429D01*
X148163037Y-59654286D01*
X148109466Y-60082857D01*
X148020180Y-60225714D01*
X147939822Y-60297143D01*
X147788037Y-60368571D01*
X147502323Y-60368571D01*
X147368394Y-60297143D01*
X148930895Y-60368571D02*
X148796965Y-60297143D01*
X148734466Y-60225714D01*
X148680894Y-60082857D01*
X148734465Y-59654286D01*
X148823751Y-59511429D01*
X148904108Y-59440000D01*
X149055895Y-59368571D01*
X149270180Y-59368571D01*
X149404108Y-59440000D01*
X149466608Y-59511429D01*
X149520180Y-59654286D01*
X149466609Y-60082857D01*
X149377323Y-60225714D01*
X149296965Y-60297143D01*
X149145180Y-60368571D01*
X148930895Y-60368571D01*
X150073752Y-60368571D02*
X150198752Y-59368571D01*
X150163037Y-59654286D02*
X150252322Y-59511429D01*
X150332680Y-59440000D01*
X150484466Y-59368571D01*
X150627323Y-59368571D01*
X151645180Y-60368571D02*
X151743394Y-59582857D01*
X151689822Y-59440000D01*
X151555894Y-59368571D01*
X151270180Y-59368571D01*
X151118394Y-59440000D01*
X151654108Y-60297143D02*
X151502323Y-60368571D01*
X151145180Y-60368571D01*
X151011251Y-60297143D01*
X150957679Y-60154286D01*
X150975536Y-60011429D01*
X151064823Y-59868571D01*
X151216608Y-59797143D01*
X151573751Y-59797143D01*
X151725537Y-59725714D01*
X152270180Y-59368571D02*
X152841609Y-59368571D01*
X152546966Y-58868571D02*
X152386251Y-60154286D01*
X152439822Y-60297143D01*
X152573752Y-60368571D01*
X152716609Y-60368571D01*
X153430895Y-60368571D02*
X153296965Y-60297143D01*
X153234466Y-60225714D01*
X153180894Y-60082857D01*
X153234465Y-59654286D01*
X153323751Y-59511429D01*
X153404108Y-59440000D01*
X153555895Y-59368571D01*
X153770180Y-59368571D01*
X153904108Y-59440000D01*
X153966608Y-59511429D01*
X154020180Y-59654286D01*
X153966609Y-60082857D01*
X153877323Y-60225714D01*
X153796965Y-60297143D01*
X153645180Y-60368571D01*
X153430895Y-60368571D01*
X154573752Y-60368571D02*
X154698752Y-59368571D01*
X154663037Y-59654286D02*
X154752322Y-59511429D01*
X154832680Y-59440000D01*
X154984466Y-59368571D01*
X155127323Y-59368571D01*
X155484466Y-59368571D02*
X155716609Y-60368571D01*
X156198751Y-59368571D02*
X155716609Y-60368571D01*
X155529108Y-60725714D01*
X155448751Y-60797143D01*
X155296966Y-60868571D01*
X156645180Y-60368571D02*
X156832680Y-58868571D01*
X157404108Y-58868571D01*
X157538037Y-58940000D01*
X157600536Y-59011429D01*
X157654108Y-59154286D01*
X157627323Y-59368571D01*
X157538036Y-59511429D01*
X157457680Y-59582857D01*
X157305893Y-59654286D01*
X156734465Y-59654286D01*
X158359466Y-60368571D02*
X158225536Y-60297143D01*
X158163037Y-60225714D01*
X158109465Y-60082857D01*
X158163036Y-59654286D01*
X158252322Y-59511429D01*
X158332679Y-59440000D01*
X158484466Y-59368571D01*
X158698751Y-59368571D01*
X158832679Y-59440000D01*
X158895179Y-59511429D01*
X158948751Y-59654286D01*
X158895180Y-60082857D01*
X158805894Y-60225714D01*
X158725536Y-60297143D01*
X158573751Y-60368571D01*
X158359466Y-60368571D01*
X159484466Y-59368571D02*
X159645180Y-60368571D01*
X160020179Y-59654286D01*
X160216609Y-60368571D01*
X160627323Y-59368571D01*
X161654108Y-60297143D02*
X161502323Y-60368571D01*
X161216609Y-60368571D01*
X161082680Y-60297143D01*
X161029108Y-60154286D01*
X161100537Y-59582857D01*
X161189823Y-59440000D01*
X161341609Y-59368571D01*
X161627323Y-59368571D01*
X161761251Y-59440000D01*
X161814823Y-59582857D01*
X161796966Y-59725714D01*
X161064823Y-59868571D01*
X162359466Y-60368571D02*
X162484466Y-59368571D01*
X162448751Y-59654286D02*
X162538036Y-59511429D01*
X162618394Y-59440000D01*
X162770180Y-59368571D01*
X162913037Y-59368571D01*
X163225536Y-60297143D02*
X163430894Y-60368571D01*
X163788037Y-60368571D01*
X163939822Y-60297143D01*
X164020180Y-60225714D01*
X164109465Y-60082857D01*
X164127322Y-59940000D01*
X164073751Y-59797143D01*
X164011251Y-59725714D01*
X163877322Y-59654286D01*
X163600537Y-59582857D01*
X163466607Y-59511429D01*
X163404108Y-59440000D01*
X163350536Y-59297143D01*
X163368393Y-59154286D01*
X163457679Y-59011429D01*
X163538036Y-58940000D01*
X163689823Y-58868571D01*
X164046965Y-58868571D01*
X164252322Y-58940000D01*
X165484465Y-59368571D02*
X165359465Y-60368571D01*
X164841608Y-59368571D02*
X164743393Y-60154286D01*
X164796964Y-60297143D01*
X164930894Y-60368571D01*
X165145179Y-60368571D01*
X165296964Y-60297143D01*
X165377322Y-60225714D01*
X166198751Y-59368571D02*
X166011251Y-60868571D01*
X166189822Y-59440000D02*
X166341608Y-59368571D01*
X166627322Y-59368571D01*
X166761250Y-59440000D01*
X166823750Y-59511429D01*
X166877322Y-59654286D01*
X166823751Y-60082857D01*
X166734465Y-60225714D01*
X166654107Y-60297143D01*
X166502322Y-60368571D01*
X166216608Y-60368571D01*
X166082679Y-60297143D01*
X167555894Y-59368571D02*
X167368394Y-60868571D01*
X167546965Y-59440000D02*
X167698751Y-59368571D01*
X167984465Y-59368571D01*
X168118393Y-59440000D01*
X168180893Y-59511429D01*
X168234465Y-59654286D01*
X168180894Y-60082857D01*
X168091608Y-60225714D01*
X168011250Y-60297143D01*
X167859465Y-60368571D01*
X167573751Y-60368571D01*
X167439822Y-60297143D01*
X169002323Y-60368571D02*
X168868393Y-60297143D01*
X168814822Y-60154286D01*
X168975537Y-58868571D01*
X169555894Y-59368571D02*
X169788037Y-60368571D01*
X170270179Y-59368571D02*
X169788037Y-60368571D01*
X169600536Y-60725714D01*
X169520179Y-60797143D01*
X169368394Y-60868571D01*
X142558393Y-56328571D02*
X142424464Y-57400000D01*
X142326250Y-57614286D01*
X142165536Y-57757143D01*
X141942322Y-57828571D01*
X141799465Y-57828571D01*
X143183393Y-57042857D02*
X143683393Y-57042857D01*
X143799465Y-57828571D02*
X143085179Y-57828571D01*
X143272679Y-56328571D01*
X143986965Y-56328571D01*
X144415536Y-56328571D02*
X144728036Y-57828571D01*
X145415536Y-56328571D01*
X146692321Y-56400000D02*
X146558393Y-56328571D01*
X146344107Y-56328571D01*
X146120893Y-56400000D01*
X145960178Y-56542857D01*
X145870893Y-56685714D01*
X145763749Y-56971429D01*
X145736964Y-57185714D01*
X145772678Y-57471429D01*
X145826249Y-57614286D01*
X145951250Y-57757143D01*
X146156607Y-57828571D01*
X146299464Y-57828571D01*
X146522678Y-57757143D01*
X146603036Y-57685714D01*
X146665536Y-57185714D01*
X146379821Y-57185714D01*
X147326250Y-57042857D02*
X147826250Y-57042857D01*
X147942322Y-57828571D02*
X147228036Y-57828571D01*
X147415536Y-56328571D01*
X148129822Y-56328571D01*
X147469107Y-55900000D02*
X148183393Y-55900000D01*
X148585179Y-57828571D02*
X148772679Y-56328571D01*
X149442322Y-57828571D01*
X149629822Y-56328571D01*
X149004821Y-57900000D02*
X149138749Y-57971429D01*
X149192321Y-58114286D01*
X149103035Y-58257143D01*
X148951250Y-58328571D01*
X148736965Y-58328571D01*
X150156608Y-57828571D02*
X150344108Y-56328571D01*
X151486965Y-56328571D02*
X151353036Y-57400000D01*
X151254822Y-57614286D01*
X151094108Y-57757143D01*
X150870894Y-57828571D01*
X150728037Y-57828571D01*
X151951250Y-57757143D02*
X152156608Y-57828571D01*
X152513751Y-57828571D01*
X152665536Y-57757143D01*
X152745894Y-57685714D01*
X152835179Y-57542857D01*
X152853036Y-57400000D01*
X152799465Y-57257143D01*
X152736965Y-57185714D01*
X152603036Y-57114286D01*
X152326251Y-57042857D01*
X152192321Y-56971429D01*
X152129822Y-56900000D01*
X152076250Y-56757143D01*
X152094107Y-56614286D01*
X152183393Y-56471429D01*
X152263750Y-56400000D01*
X152415537Y-56328571D01*
X152772679Y-56328571D01*
X152978036Y-56400000D01*
X155460179Y-57685714D02*
X155379821Y-57757143D01*
X155156607Y-57828571D01*
X155013750Y-57828571D01*
X154808393Y-57757143D01*
X154683392Y-57614286D01*
X154629821Y-57471429D01*
X154594107Y-57185714D01*
X154620892Y-56971429D01*
X154728036Y-56685714D01*
X154817321Y-56542857D01*
X154978036Y-56400000D01*
X155201250Y-56328571D01*
X155344107Y-56328571D01*
X155549464Y-56400000D01*
X155611964Y-56471429D01*
X155058393Y-55757143D02*
X155317321Y-55971429D01*
X155629821Y-55757143D01*
X156183393Y-57042857D02*
X156683393Y-57042857D01*
X156799465Y-57828571D02*
X156085179Y-57828571D01*
X156272679Y-56328571D01*
X156986965Y-56328571D01*
X158299465Y-57828571D02*
X157888750Y-57114286D01*
X157442322Y-57828571D02*
X157629822Y-56328571D01*
X158201250Y-56328571D01*
X158335179Y-56400000D01*
X158397678Y-56471429D01*
X158451250Y-56614286D01*
X158424465Y-56828571D01*
X158335178Y-56971429D01*
X158254822Y-57042857D01*
X158103035Y-57114286D01*
X157531607Y-57114286D01*
X158942322Y-57828571D02*
X159129822Y-56328571D01*
X159799465Y-57828571D01*
X159986965Y-56328571D01*
X160986965Y-56328571D02*
X161272679Y-56328571D01*
X161406608Y-56400000D01*
X161531608Y-56542857D01*
X161567322Y-56828571D01*
X161504822Y-57328571D01*
X161397679Y-57614286D01*
X161236965Y-57757143D01*
X161085179Y-57828571D01*
X160799465Y-57828571D01*
X160665536Y-57757143D01*
X160540536Y-57614286D01*
X160504822Y-57328571D01*
X160567322Y-56828571D01*
X160674465Y-56542857D01*
X160835179Y-56400000D01*
X160986965Y-56328571D01*
X162058394Y-56328571D02*
X162370894Y-57828571D01*
X163058394Y-56328571D01*
X163308393Y-57757143D02*
X163513751Y-57828571D01*
X163870894Y-57828571D01*
X164022679Y-57757143D01*
X164103037Y-57685714D01*
X164192322Y-57542857D01*
X164210179Y-57400000D01*
X164156608Y-57257143D01*
X164094108Y-57185714D01*
X163960179Y-57114286D01*
X163683394Y-57042857D01*
X163549464Y-56971429D01*
X163486965Y-56900000D01*
X163433393Y-56757143D01*
X163451250Y-56614286D01*
X163540536Y-56471429D01*
X163620893Y-56400000D01*
X163772680Y-56328571D01*
X164129822Y-56328571D01*
X164335179Y-56400000D01*
M02*
