M48
;DRILL file {KiCad 4.0.7} date 06/09/18 23:50:32
;FORMAT={-:-/ absolute / metric / decimal}
FMAT,2
METRIC,TZ
T1C0.600
T2C0.700
T3C0.800
T4C0.900
T5C1.000
T6C1.100
T7C1.200
T8C1.300
T9C1.400
T10C2.000
T11C6.000
T12C6.100
T13C8.400
%
G90
G05
M71
T1
X71.7Y-62.23
X73.018Y-59.048
X73.018Y-65.412
X76.2Y-57.73
X76.2Y-66.73
X79.382Y-59.048
X79.382Y-65.412
X80.7Y-62.23
T2
X109.22Y-81.28
X111.76Y-78.74
X114.3Y-81.28
T3
X81.28Y-71.12
X96.52Y-71.12
X115.57Y-96.52
X116.84Y-58.42
X118.11Y-69.85
X118.11Y-74.85
X118.11Y-78.74
X118.11Y-90.17
X132.08Y-58.42
X133.35Y-78.74
X133.35Y-90.17
X135.89Y-96.52
X137.16Y-80.01
X143.51Y-114.3
X143.51Y-120.65
X148.51Y-114.3
X148.51Y-120.65
X152.4Y-80.01
X156.21Y-109.22
X156.21Y-114.3
X156.21Y-119.38
X171.45Y-109.22
X171.45Y-114.3
X171.45Y-119.38
X171.5Y-67.31
X173.345Y-62.855
X173.345Y-71.765
X175.26Y-109.22
X177.8Y-61.01
X177.8Y-73.61
X177.8Y-113.03
X177.8Y-115.57
X177.8Y-118.11
X182.255Y-62.855
X182.255Y-71.765
X184.1Y-67.31
X190.5Y-109.22
T4
X128.27Y-72.39
X130.81Y-72.39
X140.97Y-107.95
X143.51Y-107.95
T5
X121.92Y-64.77
X124.46Y-64.77
X127.Y-64.77
X142.24Y-74.93
X144.78Y-74.93
X147.32Y-74.93
T6
X120.65Y-83.82
X130.81Y-83.82
X156.21Y-74.93
X156.21Y-80.01
X158.75Y-125.73
X166.37Y-74.93
X166.37Y-80.01
X168.91Y-125.73
T7
X73.66Y-80.01
X104.14Y-80.01
X118.11Y-102.87
X118.11Y-109.22
X132.08Y-64.77
X133.35Y-102.87
X133.35Y-109.22
X157.48Y-64.77
X173.99Y-86.48
X173.99Y-93.98
X173.99Y-125.73
X173.99Y-134.62
X199.39Y-125.73
X199.39Y-134.62
T8
X120.65Y-119.38
X125.75Y-119.38
X130.85Y-119.38
X135.95Y-119.38
X148.67Y-104.14
X153.67Y-104.14
X158.67Y-104.14
T9
X71.12Y-90.17
X106.68Y-90.17
T10
X87.79Y-116.84
X97.79Y-116.84
T11
X76.2Y-62.23
T12
X118.62Y-130.81
X148.59Y-130.81
X194.31Y-66.04
X194.31Y-96.01
T13
X177.8Y-67.31
T0
M30
